<svg width="48" height="48" viewBox="0 0 48 48" fill="none" xmlns="http://www.w3.org/2000/svg">
<path d="M24.5744 10.5009C25.6045 10.8877 26.7949 10.7051 27.7139 10.1208C28.6826 9.48142 29.2706 8.35358 29.3038 7.20078C29.2235 6.45006 28.9936 5.68702 28.4866 5.11038C27.7589 4.1883 26.5331 3.71246 25.3739 3.8235C23.8478 3.97774 22.5322 5.18174 22.2544 6.69166C21.9592 8.29598 23.0214 10.0157 24.5744 10.5009Z" fill="#D24949"/>
<path d="M38.5493 11.0489C38.0748 10.2088 37.0439 9.72011 36.0943 9.93515C35.6946 9.41019 35.3276 8.66107 34.5724 8.64155C33.4138 8.43659 32.4503 9.36667 31.9628 10.32C31.5873 11.3904 31.654 12.6489 32.3201 13.5945C31.4177 14.4497 30.2937 15.0361 29.1161 15.4136C28.6527 14.5753 28.2828 13.5134 27.3127 13.1425C26.6677 12.8289 25.9373 13.1193 25.3377 13.4044C25.1441 13.902 25.0405 14.428 24.9895 14.9584C23.6439 13.978 22.9777 12.4107 21.9565 11.1515C21.37 10.6395 20.7404 9.92811 19.8799 10.0473C19.1639 10.2275 18.6271 10.936 18.6404 11.6787C18.6308 12.9507 19.3377 14.1072 20.1775 15.0136C21.0729 16.0534 22.1596 16.9147 23.3295 17.6259C24.1281 18.0929 24.9956 18.4734 25.9162 18.61C26.3434 18.6702 26.8545 18.5044 27.1903 18.8563C29.0114 20.3521 31.7135 21.1168 33.9044 19.9828C35.5421 19.1424 36.241 17.3188 36.8226 15.6867C37.3197 15.5564 37.8202 15.36 38.1869 14.9864C39.1676 13.9512 39.3114 12.2476 38.5493 11.0489ZM32.0513 18.0956C31.4169 18.2625 30.8805 17.8227 30.4445 17.4281C31.714 16.6595 32.7756 15.5622 33.546 14.2971C33.8604 14.2737 34.1743 14.2444 34.4879 14.2054C34.6905 14.5272 34.9285 14.8249 35.1279 15.1489C34.3682 16.3422 33.5514 17.7764 32.0513 18.0956Z" fill="#D24949"/>
<path d="M20.6151 24.6355C20.2973 23.7701 19.8658 22.8965 19.1183 22.3232C18.7268 22.0185 18.2287 21.9205 17.7626 21.7885C16.9676 22.1016 16.2904 22.7963 16.2552 23.6878C16.236 24.8301 16.5672 25.9403 16.8428 27.0385C17.2514 28.8593 17.5506 30.7409 17.3308 32.6083C17.1293 34.2998 16.3364 35.8382 15.5495 37.3224C13.8514 40.1934 11.6612 42.7325 9.54133 45.2896C9.51765 45.3549 9.47013 45.4859 9.44629 45.5512C10.3215 44.9533 11.1264 44.2558 12.0071 43.6635C13.7154 42.4118 15.2884 40.9886 16.8746 39.5886C17.5426 38.9195 18.2525 38.2859 18.8314 37.5345C20.7175 35.1798 21.804 32.1481 21.5946 29.1182C21.5317 27.5792 21.0952 26.0886 20.6151 24.6355Z" fill="#D24949"/>
<path d="M28.733 26.9552C27.9388 25.8863 26.9087 25.0192 25.8238 24.2586C24.9065 23.573 23.8857 22.9157 22.717 22.808C22.158 22.7644 21.6513 23.0327 21.183 23.3013C21.0017 23.8788 20.791 24.5314 21.0839 25.1117C21.6191 26.2524 22.7705 26.8746 23.7023 27.6472C25.6004 29.1058 27.413 30.8813 28.2102 33.1948C29.5684 37.1591 29.5078 41.4016 29.7562 45.5338C29.9702 45.1639 30.0094 44.7354 30.0943 44.326C30.5479 42.0989 30.8844 39.8476 31.0935 37.5847C31.265 36.3716 31.2918 35.1447 31.2596 33.9213C31.0978 31.4276 30.2794 28.9378 28.733 26.9552Z" fill="#D24949"/>
</svg>
