<?xml version="1.0" standalone="no"?>
<!DOCTYPE svg PUBLIC "-//W3C//DTD SVG 20010904//EN"
 "http://www.w3.org/TR/2001/REC-SVG-20010904/DTD/svg10.dtd">
<svg version="1.0" xmlns="http://www.w3.org/2000/svg"
 width="512.000000pt" height="512.000000pt" viewBox="0 0 512.000000 512.000000"
 preserveAspectRatio="xMidYMid meet">

<g transform="translate(0.000000,512.000000) scale(0.100000,-0.100000)"
fill="#000000" stroke="none">
<path d="M1002 5105 c-64 -28 -62 5 -62 -931 l0 -847 48 45 c26 24 75 63 109
86 l63 43 2 307 3 307 169 -228 c108 -145 174 -226 182 -223 8 3 53 17 101 32
49 15 92 30 96 34 5 5 -118 178 -272 385 l-281 377 0 277 c0 303 0 305 -60
336 -36 18 -55 18 -98 0z"/>
<path d="M2990 4469 c-49 -15 -94 -52 -114 -92 -26 -57 -20 -116 23 -225 58
-146 142 -454 128 -469 -3 -2 -47 2 -99 11 -269 45 -638 45 -898 1 -468 -80
-835 -224 -1033 -405 -167 -153 -191 -381 -76 -725 45 -134 129 -317 162 -354
31 -34 115 -71 161 -71 94 0 173 50 212 134 13 28 24 68 24 89 0 21 -24 111
-54 200 -52 153 -86 317 -73 351 5 13 96 50 105 42 2 -2 -2 -39 -8 -82 -25
-163 35 -421 156 -671 44 -92 62 -119 96 -143 112 -82 260 -54 332 63 48 78
46 118 -12 292 -114 342 -106 419 52 494 103 50 205 65 396 58 184 -6 316 -29
530 -93 154 -46 222 -48 304 -11 71 33 154 111 217 206 129 192 298 646 354
948 31 167 32 259 5 313 -62 122 -238 128 -314 9 -9 -14 -27 -81 -41 -150 -25
-127 -89 -344 -104 -353 -4 -3 -16 23 -25 57 -34 122 -88 264 -152 394 -57
119 -68 134 -106 157 -52 30 -101 38 -148 25z"/>
<path d="M3740 3134 c-304 -81 -411 -462 -194 -694 88 -94 191 -135 323 -128
116 7 185 34 261 105 173 160 187 418 32 593 -102 115 -270 165 -422 124z"/>
<path d="M2315 2845 c-62 -13 -155 -52 -155 -64 1 -3 187 -256 415 -561 l414
-555 1 -790 c0 -761 1 -791 19 -821 40 -66 142 -66 182 0 18 30 19 67 19 1304
0 1383 3 1311 -55 1342 -50 27 -129 7 -152 -38 -4 -9 -10 -153 -13 -319 l-5
-302 -305 410 c-167 225 -304 409 -305 408 0 0 -27 -7 -60 -14z"/>
</g>
</svg>
