<?xml version="1.0" standalone="no"?>
<!DOCTYPE svg PUBLIC "-//W3C//DTD SVG 20010904//EN"
 "http://www.w3.org/TR/2001/REC-SVG-20010904/DTD/svg10.dtd">
<svg version="1.0" xmlns="http://www.w3.org/2000/svg"
 width="512.000000pt" height="512.000000pt" viewBox="0 0 512.000000 512.000000"
 preserveAspectRatio="xMidYMid meet">

<g transform="translate(0.000000,512.000000) scale(0.100000,-0.100000)"
fill="#000000" stroke="none">
<path d="M2855 5054 c-233 -49 -387 -184 -461 -404 -28 -84 -26 -234 5 -328
60 -182 204 -321 390 -376 69 -20 217 -21 291 -1 196 52 353 209 405 405 24
90 19 228 -10 317 -65 193 -225 337 -420 378 -66 14 -156 18 -200 9z"/>
<path d="M572 4546 c-163 -53 -216 -260 -96 -380 40 -40 58 -47 664 -276 294
-112 539 -206 543 -210 4 -4 -235 -215 -533 -469 -397 -340 -546 -473 -560
-501 -70 -137 60 -301 206 -261 21 6 236 140 479 299 242 159 442 288 443 286
2 -1 -37 -126 -87 -277 -96 -288 -106 -341 -80 -426 16 -55 60 -113 109 -146
25 -16 288 -124 585 -240 l539 -210 332 -416 c183 -229 345 -426 361 -436 185
-129 430 60 347 268 -9 22 -151 221 -315 442 -164 220 -297 402 -296 403 1 2
43 -3 92 -10 l90 -12 395 -234 c217 -128 413 -241 435 -251 52 -24 138 -24
191 0 22 10 56 37 76 60 81 95 75 228 -15 311 -31 30 -828 545 -897 580 -21
11 -209 50 -455 95 -231 42 -421 78 -423 80 -2 2 13 65 33 140 98 360 131 689
91 885 -26 123 -85 226 -157 273 -32 21 -1962 637 -2014 642 -22 3 -59 -2 -83
-9z"/>
<path d="M20 500 c-19 -19 -20 -33 -20 -210 0 -182 1 -190 22 -210 l22 -20
2516 0 2516 0 22 20 c20 19 22 30 22 149 0 157 -5 168 -95 181 -33 5 -82 16
-110 24 -72 23 -208 21 -287 -4 -81 -25 -175 -25 -256 0 -86 27 -215 27 -300
0 -81 -25 -169 -25 -252 0 -88 27 -216 27 -302 0 -81 -25 -175 -25 -256 0 -86
27 -215 27 -300 0 -81 -25 -169 -25 -252 0 -88 27 -216 27 -302 0 -81 -25
-165 -25 -253 0 -93 27 -218 27 -303 0 -81 -25 -169 -25 -252 0 -88 27 -216
27 -302 0 -81 -25 -165 -25 -253 0 -93 27 -218 27 -303 0 -78 -24 -163 -25
-243 -3 -51 14 -63 22 -71 45 -6 16 -18 33 -28 38 -10 6 -95 10 -189 10 -158
0 -173 -2 -191 -20z"/>
</g>
</svg>
