<?xml version="1.0" standalone="no"?>
<!DOCTYPE svg PUBLIC "-//W3C//DTD SVG 20010904//EN"
 "http://www.w3.org/TR/2001/REC-SVG-20010904/DTD/svg10.dtd">
<svg version="1.0" xmlns="http://www.w3.org/2000/svg"
 width="512.000000pt" height="512.000000pt" viewBox="0 0 512.000000 512.000000"
 preserveAspectRatio="xMidYMid meet">

<g transform="translate(0.000000,512.000000) scale(0.100000,-0.100000)"
fill="#000000" stroke="none">
<path d="M2652 4961 c-84 -55 -200 -168 -241 -235 -115 -191 -121 -419 -16
-630 19 -39 35 -76 35 -82 0 -7 -33 21 -72 60 -112 112 -255 166 -397 151
l-64 -7 54 -29 c108 -59 167 -143 189 -267 17 -95 1 -155 -79 -313 -83 -162
-101 -219 -101 -315 0 -91 26 -166 79 -223 43 -47 36 -50 -49 -25 -69 20 -153
74 -208 133 l-43 46 4 -130 c3 -114 8 -140 34 -211 32 -86 79 -166 133 -227
l32 -37 614 0 613 0 46 64 c87 122 145 287 166 470 22 193 -16 393 -110 592
-73 154 -140 245 -289 394 -140 140 -269 302 -319 399 -55 108 -39 271 39 409
16 28 25 52 20 52 -5 0 -36 -18 -70 -39z"/>
<path d="M1950 2240 l0 -170 154 0 153 0 6 -72 c3 -40 25 -481 49 -980 l42
-908 206 0 206 0 42 913 c24 501 45 942 49 980 l6 67 153 0 154 0 0 170 0 170
-610 0 -610 0 0 -170z"/>
</g>
</svg>
