<?xml version="1.0" standalone="no"?>
<!DOCTYPE svg PUBLIC "-//W3C//DTD SVG 20010904//EN"
 "http://www.w3.org/TR/2001/REC-SVG-20010904/DTD/svg10.dtd">
<svg version="1.0" xmlns="http://www.w3.org/2000/svg"
 width="512.000000pt" height="512.000000pt" viewBox="0 0 512.000000 512.000000"
 preserveAspectRatio="xMidYMid meet">

<g transform="translate(0.000000,512.000000) scale(0.100000,-0.100000)"
fill="#000000" stroke="none">
<path d="M2185 5106 c-132 -31 -217 -77 -311 -170 -123 -124 -173 -236 -181
-411 -5 -93 -2 -122 16 -190 47 -172 166 -317 321 -394 261 -128 541 -78 737
132 109 117 165 261 165 422 0 168 -56 306 -171 428 -80 83 -149 128 -253 164
-91 31 -234 39 -323 19z"/>
<path d="M4003 4856 c-18 -8 -339 -228 -715 -489 -376 -261 -706 -486 -734
-500 -133 -67 -473 -161 -768 -212 -151 -27 -428 -66 -433 -62 -1 2 11 48 28
102 38 124 36 186 -5 240 -42 54 -82 75 -145 75 -74 0 -123 -29 -165 -100 -79
-131 -247 -470 -255 -515 -11 -61 5 -130 44 -181 34 -45 114 -84 175 -84 25 0
248 12 497 27 249 15 455 24 458 21 9 -9 385 -1329 384 -1348 0 -8 -91 -172
-202 -365 l-202 -350 -477 -240 c-262 -132 -488 -250 -501 -263 -13 -13 -37
-46 -52 -73 -76 -140 -17 -308 133 -377 102 -46 117 -42 707 196 286 116 537
218 558 226 20 9 54 33 75 54 20 21 181 268 357 549 176 282 322 512 325 512
3 0 88 -105 191 -232 l185 -232 94 -505 c51 -278 102 -528 112 -557 35 -95
150 -173 254 -173 120 0 236 95 266 220 10 42 -105 1165 -128 1247 -11 40 -66
125 -241 368 l-226 317 -208 731 c-195 686 -207 733 -191 748 9 9 252 206 538
437 298 241 530 435 542 454 66 107 39 239 -66 312 -36 25 -54 31 -110 33 -43
2 -79 -2 -99 -11z"/>
<path d="M1565 4101 c-148 -68 -181 -257 -64 -368 150 -142 394 -25 377 181
-13 153 -176 250 -313 187z"/>
</g>
</svg>
