<svg width="48" height="48" viewBox="0 0 48 48" fill="none" xmlns="http://www.w3.org/2000/svg">
<path d="M28.6068 23.014C29.3993 22.0931 29.6371 20.854 29.8667 19.6955C30.9016 15.5492 31.9489 11.4051 32.9718 7.25612C32.9684 7.1614 33.0504 6.70764 32.8683 7.00988C32.6582 7.22268 32.5366 7.50108 32.3918 7.75836C31.4614 9.5094 30.5153 11.2531 29.6425 13.0336C29.186 14.1427 28.7305 15.2542 28.1638 16.3131C27.5336 17.4731 27.1467 18.7406 26.7512 19.994C26.5361 20.7763 26.3307 21.588 26.4345 22.4056C26.8436 23.1193 27.8884 23.4121 28.6068 23.014Z" fill="#D24949"/>
<path d="M31.392 29.2712C31.1755 30.0548 30.9705 30.8686 31.074 31.6881C31.5406 32.5344 33.1323 32.871 33.583 31.8428C34.1291 30.9419 34.324 29.8969 34.5281 28.8792C35.5828 24.7171 36.6016 20.5457 37.6641 16.3856C37.6164 16.3462 37.5211 16.2676 37.4737 16.2283C36.3867 18.2452 35.294 20.2606 34.2812 22.3161C33.8251 23.4249 33.3691 24.5361 32.8027 25.5947C32.1734 26.7534 31.7867 28.0193 31.392 29.2712Z" fill="#D24949"/>
<path d="M12.967 26.2925C14.7298 26.8034 16.5682 27.0365 18.4028 27.0219C18.9071 27.0211 19.445 27.0152 19.9023 26.7779C20.4762 26.1411 20.5916 24.8666 19.7586 24.3947C19.1916 24.2413 18.6113 24.119 18.0255 24.0656C13.1071 23.9746 8.18792 23.7115 3.26904 23.6741C3.44104 23.8854 3.702 23.9594 3.95128 24.0293C5.58312 24.4856 7.2076 24.9682 8.84424 25.4072C10.198 25.7963 11.6116 25.9075 12.967 26.2925Z" fill="#D24949"/>
<path d="M22.6752 33.3465C17.7555 33.2524 12.8352 32.9954 7.91504 32.9514C8.1032 33.2071 8.42208 33.2537 8.70288 33.3409C10.6043 33.8666 12.4899 34.453 14.4077 34.918C15.5211 35.1343 16.645 35.3021 17.7402 35.6058C19.5643 36.134 21.4734 36.334 23.3693 36.2993C23.7648 36.2865 24.1781 36.2442 24.5358 36.0642C25.1165 35.4285 25.2336 34.1429 24.3942 33.6733C23.8314 33.5225 23.2562 33.3997 22.6752 33.3465Z" fill="#D24949"/>
<path d="M44.1669 37.3955C43.4419 37.3395 42.7523 37.6676 42.1136 37.9727C40.4664 38.8047 38.8909 40.0207 36.9683 40.0647C33.7915 39.8916 31.2144 37.4475 27.999 37.4723C25.0297 37.4779 22.6081 39.6166 19.6845 39.8476C18.3798 39.9982 17.1216 39.4916 15.968 38.9407C15.0411 38.4735 14.0285 38.1887 12.9998 38.0654C11.4941 37.9529 10.0078 38.3241 8.58285 38.7724C7.86045 39.0052 7.11805 39.2052 6.45037 39.5756C6.45821 39.8057 6.40573 40.0847 6.61021 40.2515C7.08189 40.3961 7.55293 40.1827 7.99245 40.0287C9.55565 39.4927 11.1753 38.9539 12.8488 39.0401C14.8841 39.1894 16.5557 40.6107 18.5769 40.8127C19.7105 40.8942 20.8659 40.7883 21.9419 40.4086C24.0357 39.6723 26.0363 38.3961 28.3299 38.4614C31.2806 38.6545 33.6637 40.8711 36.6252 41.0183C38.7385 41.1969 40.5576 39.9227 42.3283 38.9649C42.9389 38.6047 43.6264 38.4166 44.3179 38.2867C44.7769 38.1508 44.6089 37.4252 44.1669 37.3955Z" fill="#D24949"/>
<path d="M26.3945 32.5161C28.3275 32.5161 29.8945 30.9491 29.8945 29.0161C29.8945 27.0831 28.3275 25.5161 26.3945 25.5161C24.4615 25.5161 22.8945 27.0831 22.8945 29.0161C22.8945 30.9491 24.4615 32.5161 26.3945 32.5161Z" fill="#D24949"/>
<path d="M21.7549 23.2361C23.6879 23.2361 25.2549 21.6691 25.2549 19.7361C25.2549 17.8031 23.6879 16.2361 21.7549 16.2361C19.8219 16.2361 18.2549 17.8031 18.2549 19.7361C18.2549 21.6691 19.8219 23.2361 21.7549 23.2361Z" fill="#D24949"/>
</svg>
