<svg width="168" height="50" viewBox="0 0 168 50" fill="none" xmlns="http://www.w3.org/2000/svg">
<rect width="167.784" height="50" rx="25" fill="white"/>
<path fill-rule="evenodd" clip-rule="evenodd" d="M82.596 17.9998H81.6516V10.7598H82.596V17.9998ZM55.1577 18.0002H57.6293C58.5871 18.0002 59.3942 17.6885 60.0506 17.0652C60.707 16.4418 61.0352 15.5768 61.0352 14.4702C61.0352 13.3568 60.7103 12.4852 60.0606 11.8552C59.4109 11.2252 58.6072 10.9102 57.6494 10.9102H55.1577V18.0002ZM57.5989 17.1293H56.1421V11.7793H57.619C58.3156 11.7793 58.8899 12.0126 59.3421 12.4793C59.7942 12.946 60.0202 13.6093 60.0202 14.4693C60.0202 15.3226 59.7908 15.9793 59.332 16.4393C58.8732 16.8993 58.2955 17.1293 57.5989 17.1293ZM63.2857 16.8598C63.5804 17.1598 63.9388 17.3098 64.3607 17.3098C64.7827 17.3098 65.1394 17.1581 65.4307 16.8548C65.7221 16.5514 65.8678 16.1298 65.8678 15.5898C65.8678 15.0564 65.7221 14.6381 65.4307 14.3348C65.1394 14.0314 64.7827 13.8798 64.3607 13.8798C63.9388 13.8798 63.5821 14.0314 63.2907 14.3348C62.9994 14.6381 62.8537 15.0564 62.8537 15.5898C62.8537 16.1298 62.9977 16.5531 63.2857 16.8598ZM64.3607 13.04C63.644 13.04 63.0513 13.2834 62.5824 13.77C62.1202 14.25 61.8892 14.8567 61.8892 15.59C61.8892 16.33 62.1202 16.9417 62.5824 17.425C63.0446 17.9084 63.6373 18.15 64.3607 18.15C65.0841 18.15 65.6769 17.9084 66.139 17.425C66.6012 16.9417 66.8323 16.33 66.8323 15.59C66.8323 14.8567 66.5995 14.2484 66.134 13.765C65.6685 13.2817 65.0774 13.04 64.3607 13.04ZM70.7605 13.1895H71.7351L72.991 16.8095L74.056 13.1895H75.0506L73.4833 17.9995H72.5087L71.2227 14.3395L69.9668 17.9995H68.9722L67.3848 13.1895H68.4196L69.5047 16.8095L70.7605 13.1895ZM76.9496 17.9998V15.2198C76.9496 14.8398 77.0484 14.5248 77.246 14.2748C77.4436 14.0248 77.7199 13.8998 78.0749 13.8998C78.825 13.8998 79.2001 14.3031 79.2001 15.1098V17.9998H80.1445V14.9498C80.1445 14.3898 79.9955 13.9331 79.6974 13.5798C79.3994 13.2264 78.9724 13.0498 78.4165 13.0498C77.7467 13.0498 77.251 13.3264 76.9295 13.8798V13.1898H76.0052V17.9998H76.9496ZM86.2732 17.3098C85.8512 17.3098 85.4929 17.1598 85.1982 16.8598C84.9101 16.5531 84.7661 16.1298 84.7661 15.5898C84.7661 15.0564 84.9118 14.6381 85.2032 14.3348C85.4946 14.0314 85.8512 13.8798 86.2732 13.8798C86.6952 13.8798 87.0518 14.0314 87.3432 14.3348C87.6346 14.6381 87.7802 15.0564 87.7802 15.5898C87.7802 16.1298 87.6346 16.5514 87.3432 16.8548C87.0518 17.1581 86.6952 17.3098 86.2732 17.3098ZM84.495 13.77C84.9639 13.2834 85.5566 13.04 86.2733 13.04C86.99 13.04 87.5811 13.2817 88.0466 13.765C88.5121 14.2484 88.7449 14.8567 88.7449 15.59C88.7449 16.33 88.5138 16.9417 88.0516 17.425C87.5895 17.9084 86.9967 18.15 86.2733 18.15C85.5499 18.15 84.9572 17.9084 84.495 17.425C84.0328 16.9417 83.8018 16.33 83.8018 15.59C83.8018 14.8567 84.0328 14.25 84.495 13.77ZM90.0508 15.715C89.7829 15.965 89.6489 16.2967 89.6489 16.71C89.6489 17.1034 89.7996 17.4417 90.101 17.725C90.4025 18.0084 90.7909 18.15 91.2665 18.15C91.655 18.15 91.9781 18.07 92.236 17.91C92.4939 17.75 92.6898 17.5634 92.8238 17.35C92.8238 17.5834 92.8405 17.8 92.874 18H93.7983C93.7581 17.76 93.738 17.4967 93.738 17.21V14.8C93.738 14.2867 93.5739 13.865 93.2457 13.535C92.9175 13.205 92.4118 13.04 91.7286 13.04C91.2062 13.04 90.7574 13.185 90.3824 13.475C90.0073 13.765 89.7963 14.14 89.7494 14.6L90.6536 14.81C90.6871 14.5167 90.7976 14.2817 90.9852 14.105C91.1727 13.9284 91.4272 13.84 91.7487 13.84C92.097 13.84 92.3583 13.92 92.5324 14.08C92.7066 14.24 92.7936 14.4467 92.7936 14.7C92.7936 14.9067 92.6697 15.0267 92.4219 15.06L91.1158 15.25C90.6737 15.31 90.3187 15.465 90.0508 15.715ZM91.3971 17.3598C91.8191 17.3598 92.1574 17.2464 92.4119 17.0198C92.6664 16.7931 92.7937 16.4331 92.7937 15.9398V15.7198L91.3168 15.9398C91.1024 15.9731 90.9316 16.0498 90.8044 16.1698C90.6771 16.2898 90.6135 16.4531 90.6135 16.6598C90.6135 16.8464 90.6855 17.0098 90.8295 17.1498C90.9735 17.2898 91.1627 17.3598 91.3971 17.3598ZM96.1443 16.8198C95.8932 16.4998 95.7676 16.0864 95.7676 15.5798C95.7676 15.0798 95.8982 14.6731 96.1594 14.3598C96.4206 14.0464 96.7656 13.8898 97.1942 13.8898C97.6229 13.8898 97.9612 14.0431 98.209 14.3498C98.4568 14.6564 98.5807 15.0598 98.5807 15.5598C98.5807 16.0664 98.4535 16.4831 98.1989 16.8098C97.9444 17.1364 97.6062 17.2998 97.1842 17.2998C96.7421 17.2998 96.3955 17.1398 96.1443 16.8198ZM98.5939 17.5291L98.5908 17.2698C98.4635 17.5164 98.271 17.7214 98.0131 17.8848C97.7552 18.0481 97.4488 18.1298 97.0938 18.1298C96.4039 18.1298 95.8496 17.8881 95.431 17.4048C95.0124 16.9214 94.8031 16.3131 94.8031 15.5798C94.8031 14.8798 95.0174 14.2848 95.4461 13.7948C95.8747 13.3048 96.424 13.0598 97.0938 13.0598C97.489 13.0598 97.8105 13.1381 98.0583 13.2948C98.3061 13.4514 98.4769 13.6431 98.5707 13.8698V10.7598H99.5051V17.1098C99.5051 17.4364 99.5218 17.7331 99.5553 17.9998H98.641C98.6159 17.8598 98.6002 17.7029 98.5939 17.5291ZM105.694 17.3098C105.272 17.3098 104.914 17.1598 104.619 16.8598C104.331 16.5531 104.187 16.1298 104.187 15.5898C104.187 15.0564 104.333 14.6381 104.624 14.3348C104.915 14.0314 105.272 13.8798 105.694 13.8798C106.116 13.8798 106.473 14.0314 106.764 14.3348C107.055 14.6381 107.201 15.0564 107.201 15.5898C107.201 16.1298 107.055 16.5514 106.764 16.8548C106.473 17.1581 106.116 17.3098 105.694 17.3098ZM103.916 13.77C104.385 13.2834 104.978 13.04 105.694 13.04C106.411 13.04 107.002 13.2817 107.468 13.765C107.933 14.2484 108.166 14.8567 108.166 15.59C108.166 16.33 107.935 16.9417 107.473 17.425C107.01 17.9084 106.418 18.15 105.694 18.15C104.971 18.15 104.378 17.9084 103.916 17.425C103.454 16.9417 103.223 16.33 103.223 15.59C103.223 14.8567 103.454 14.25 103.916 13.77ZM110.316 17.9998V15.2198C110.316 14.8398 110.414 14.5248 110.612 14.2748C110.81 14.0248 111.086 13.8998 111.441 13.8998C112.191 13.8998 112.566 14.3031 112.566 15.1098V17.9998H113.511V14.9498C113.511 14.3898 113.362 13.9331 113.063 13.5798C112.765 13.2264 112.338 13.0498 111.782 13.0498C111.113 13.0498 110.617 13.3264 110.296 13.8798V13.1898H109.371V17.9998H110.316ZM118.795 11.6698V13.1898H119.84V14.0398H118.795V16.5398C118.795 16.7664 118.847 16.9331 118.951 17.0398C119.055 17.1464 119.227 17.1998 119.468 17.1998C119.609 17.1998 119.733 17.1864 119.84 17.1598V17.9598C119.679 18.0198 119.465 18.0498 119.197 18.0498C118.782 18.0498 118.454 17.9298 118.213 17.6898C117.971 17.4498 117.851 17.1131 117.851 16.6798V14.0398H116.927V13.1898H117.188C117.436 13.1898 117.621 13.1214 117.745 12.9848C117.869 12.8481 117.931 12.6698 117.931 12.4498V11.6698H118.795ZM122.04 17.9998V15.1698C122.054 14.7964 122.158 14.4914 122.352 14.2548C122.546 14.0181 122.817 13.8998 123.166 13.8998C123.916 13.8998 124.291 14.3031 124.291 15.1098V17.9998H125.235V14.9498C125.235 14.3898 125.086 13.9331 124.788 13.5798C124.49 13.2264 124.063 13.0498 123.507 13.0498C122.851 13.0498 122.362 13.2831 122.04 13.7498V10.7598H121.096V17.9998H122.04ZM127.355 15.1001H129.998C129.984 14.7401 129.864 14.4451 129.636 14.2151C129.408 13.9851 129.087 13.8701 128.672 13.8701C128.297 13.8701 127.988 13.9918 127.747 14.2351C127.506 14.4785 127.376 14.7668 127.355 15.1001ZM130.952 16.63L130.138 16.35C129.924 16.9967 129.472 17.32 128.782 17.32C128.373 17.32 128.03 17.1834 127.752 16.91C127.474 16.6367 127.332 16.2867 127.325 15.86H130.962C130.976 15.78 130.982 15.68 130.982 15.56C130.982 14.7934 130.778 14.1817 130.369 13.725C129.961 13.2684 129.391 13.04 128.661 13.04C128.032 13.04 127.489 13.28 127.034 13.76C126.578 14.24 126.351 14.8467 126.351 15.58C126.351 16.3667 126.587 16.9917 127.059 17.455C127.531 17.9184 128.105 18.15 128.782 18.15C129.324 18.15 129.787 18.0084 130.168 17.725C130.55 17.4417 130.811 17.0767 130.952 16.63Z" fill="black"/>
<path fill-rule="evenodd" clip-rule="evenodd" d="M63.4166 37H65.5225L61.0857 25.656H58.8513L54.4146 37H56.4561L57.5171 34.152H62.3396L63.4166 37ZM59.9285 27.7363L61.6646 32.3763H58.1924L59.9285 27.7363ZM68.7375 40.04V36.12C69.1394 36.712 69.9914 37.192 71.1166 37.192C73.3672 37.192 74.7979 35.432 74.7979 33.096C74.7979 30.792 73.4958 29.032 71.1809 29.032C69.9753 29.032 69.0751 29.592 68.6893 30.264V29.208H66.8889V40.04H68.7375ZM72.9334 33.0957C72.9334 34.5837 72.0653 35.5437 70.8275 35.5437C69.6058 35.5437 68.7217 34.5837 68.7217 33.0957C68.7217 31.6397 69.6058 30.6797 70.8275 30.6797C72.0814 30.6797 72.9334 31.6397 72.9334 33.0957ZM78.4469 40.04V36.12C78.8488 36.712 79.7008 37.192 80.826 37.192C83.0766 37.192 84.5072 35.432 84.5072 33.096C84.5072 30.792 83.2052 29.032 80.8903 29.032C79.6847 29.032 78.7845 29.592 78.3987 30.264V29.208H76.5983V40.04H78.4469ZM82.6424 33.0957C82.6424 34.5837 81.7743 35.5437 80.5365 35.5437C79.3148 35.5437 78.4307 34.5837 78.4307 33.0957C78.4307 31.6397 79.3148 30.6797 80.5365 30.6797C81.7904 30.6797 82.6424 31.6397 82.6424 33.0957ZM97.9461 28.312C97.6889 27.048 96.644 25.416 93.9594 25.416C91.8375 25.416 90.0853 26.984 90.0853 28.888C90.0853 30.584 91.2427 31.72 92.9789 32.072L94.5864 32.408C95.567 32.616 96.1135 33.208 96.1135 33.944C96.1135 34.824 95.4062 35.512 94.0398 35.512C92.4002 35.512 91.5482 34.424 91.4356 33.24L89.6352 33.752C89.812 35.384 91.1463 37.24 94.0398 37.24C96.644 37.24 98.0747 35.56 98.0747 33.8C98.0747 32.2 96.9976 30.936 94.9883 30.536L93.3486 30.2C92.4645 30.008 92.0143 29.464 92.0143 28.744C92.0143 27.88 92.8181 27.112 93.9755 27.112C95.5027 27.112 96.0974 28.152 96.21 28.856L97.9461 28.312ZM102.286 26.824H100.598V27.992C100.598 28.68 100.229 29.208 99.3928 29.208H98.991V30.856H100.438V34.776C100.438 36.232 101.338 37.096 102.785 37.096C103.46 37.096 103.814 36.968 103.926 36.92V35.384L103.72 35.4159C103.593 35.4323 103.43 35.448 103.283 35.448C102.592 35.448 102.286 35.16 102.286 34.472V30.856H103.91V29.208H102.286V26.824ZM109.231 35.5764C108.089 35.5764 107.044 34.7124 107.044 33.0964C107.044 31.4804 108.089 30.6484 109.231 30.6484C110.388 30.6484 111.417 31.4804 111.417 33.0964C111.417 34.7284 110.388 35.5764 109.231 35.5764ZM109.231 28.968C106.9 28.968 105.18 30.712 105.18 33.096C105.18 35.496 106.9 37.24 109.231 37.24C111.578 37.24 113.298 35.496 113.298 33.096C113.298 30.712 111.578 28.968 109.231 28.968ZM119.68 29.1603C119.599 29.1443 119.406 29.1123 119.181 29.1123C118.152 29.1123 117.284 29.6083 116.915 30.4563V29.2083H115.098V37.0003H116.963V33.2883C116.963 31.8323 117.622 31.0003 119.069 31.0003C119.262 31.0003 119.471 31.0163 119.68 31.0483V29.1603ZM122.509 32.2475C122.573 31.4155 123.248 30.5195 124.422 30.5195C125.708 30.5195 126.319 31.3355 126.351 32.2475H122.509ZM126.56 34.28L128.135 34.776C127.717 36.136 126.479 37.24 124.599 37.24C122.477 37.24 120.596 35.704 120.596 33.064C120.596 30.6 122.429 28.968 124.406 28.968C126.817 28.968 128.232 30.552 128.232 33.016C128.232 33.32 128.2 33.576 128.183 33.608H122.461C122.509 34.792 123.441 35.64 124.599 35.64C125.724 35.64 126.303 35.048 126.56 34.28Z" fill="black"/>
<path fill-rule="evenodd" clip-rule="evenodd" d="M31.5414 14.5376C32.4147 13.6005 33.0055 12.2986 32.8442 11C31.5849 11.0451 30.0591 11.7405 29.1569 12.6773C28.346 13.5075 27.6373 14.8334 27.8265 16.1059C29.2323 16.2022 30.6663 15.4737 31.5414 14.5376ZM34.2217 23.502C34.1946 20.5912 36.5204 19.1944 36.6248 19.1258C35.3176 17.1502 33.2807 16.8795 32.556 16.8493C30.8233 16.6669 29.175 17.902 28.2948 17.902C27.418 17.902 26.0615 16.8737 24.6238 16.9009C22.7344 16.9318 20.993 18.035 20.0215 19.7834C18.0585 23.3 19.518 28.5109 21.4316 31.3629C22.3665 32.7597 23.4805 34.3261 24.9432 34.269C26.3537 34.2131 26.8862 33.3279 28.5899 33.3279C30.2926 33.3279 30.7718 34.269 32.2621 34.2407C33.7784 34.2131 34.7394 32.8174 35.6678 31.4171C36.7404 29.7983 37.1819 28.23 37.2088 28.1505C37.1747 28.133 34.2526 26.979 34.2217 23.502Z" fill="black"/>
</svg>
