<svg width="169" height="50" viewBox="0 0 169 50" fill="none" xmlns="http://www.w3.org/2000/svg">
<rect x="0.878418" width="167.784" height="50" rx="25" fill="black"/>
<path fill-rule="evenodd" clip-rule="evenodd" d="M74.9345 12.3704C74.9345 12.5571 74.9981 12.7171 75.1254 12.8504C75.2593 12.9771 75.4201 13.0404 75.6076 13.0404C75.7951 13.0404 75.9559 12.9754 76.0899 12.8454C76.2238 12.7154 76.2908 12.5571 76.2908 12.3704C76.2908 12.1771 76.2238 12.0154 76.0899 11.8854C75.9559 11.7554 75.7951 11.6904 75.6076 11.6904C75.4201 11.6904 75.261 11.7571 75.1304 11.8904C74.9998 12.0238 74.9345 12.1838 74.9345 12.3704ZM61.4112 19.0007H62.2049V15.5307H58.799V16.4107H61.2706C61.2572 16.6107 61.2086 16.8107 61.1249 17.0107C61.0412 17.2107 60.9173 17.4091 60.7532 17.6057C60.5891 17.8024 60.3613 17.9607 60.07 18.0807C59.7786 18.2007 59.4454 18.2607 59.0703 18.2607C58.3871 18.2607 57.8027 18.0157 57.3171 17.5257C56.8315 17.0357 56.5887 16.3441 56.5887 15.4507C56.5887 14.5641 56.8365 13.8774 57.3322 13.3907C57.8278 12.9041 58.4206 12.6607 59.1105 12.6607C59.6597 12.6607 60.1336 12.8024 60.5321 13.0857C60.9307 13.3691 61.2103 13.7674 61.371 14.2807L62.2652 13.9007C62.0576 13.2541 61.6708 12.7357 61.1048 12.3457C60.5388 11.9557 59.874 11.7607 59.1105 11.7607C58.5077 11.7607 57.9434 11.8974 57.4176 12.1707C56.8918 12.4441 56.4547 12.8674 56.1064 13.4407C55.7581 14.0141 55.584 14.6841 55.584 15.4507C55.584 16.2174 55.7498 16.8874 56.0813 17.4607C56.4129 18.0341 56.8365 18.4591 57.3523 18.7357C57.868 19.0124 58.4306 19.1507 59.0401 19.1507C59.5961 19.1507 60.0716 19.0374 60.4668 18.8107C60.862 18.5841 61.1467 18.3141 61.3208 18.0007L61.4112 19.0007ZM66.8767 16.1001H64.2344C64.2545 15.7668 64.3851 15.4785 64.6262 15.2351C64.8673 14.9918 65.1754 14.8701 65.5505 14.8701C65.9658 14.8701 66.2873 14.9851 66.515 15.2151C66.7428 15.4451 66.8633 15.7401 66.8767 16.1001ZM67.0172 17.35L67.831 17.63C67.6903 18.0767 67.4291 18.4417 67.0473 18.725C66.6656 19.0084 66.2034 19.15 65.6609 19.15C64.9844 19.15 64.41 18.9184 63.9378 18.455C63.4656 17.9917 63.2295 17.3667 63.2295 16.58C63.2295 15.8467 63.4572 15.24 63.9127 14.76C64.3682 14.28 64.9107 14.04 65.5403 14.04C66.2704 14.04 66.8397 14.2684 67.2483 14.725C67.6569 15.1817 67.8611 15.7934 67.8611 16.56C67.8611 16.68 67.8544 16.78 67.8411 16.86H64.204C64.2107 17.2867 64.3531 17.6367 64.631 17.91C64.909 18.1834 65.2523 18.32 65.6609 18.32C66.3508 18.32 66.8029 17.9967 67.0172 17.35ZM70.3331 14.1909V12.6709H69.4691V13.4509C69.4691 13.6709 69.4071 13.8492 69.2832 13.9859C69.1593 14.1226 68.9734 14.1909 68.7256 14.1909H68.4644V15.0409H69.3887V17.6809C69.3887 18.1142 69.5092 18.4509 69.7504 18.6909C69.9915 18.9309 70.3197 19.0509 70.735 19.0509C71.0029 19.0509 71.2172 19.0209 71.378 18.9609V18.1609C71.2708 18.1876 71.1469 18.2009 71.0062 18.2009C70.7651 18.2009 70.5926 18.1476 70.4888 18.0409C70.385 17.9342 70.3331 17.7676 70.3331 17.5409V15.0409H71.378V14.1909H70.3331ZM76.0798 19.0004H75.1454V14.1904H76.0798V19.0004ZM78.9532 12.6709V14.1909H79.9981V15.0409H78.9532V17.5409C78.9532 17.7676 79.0051 17.9342 79.1089 18.0409C79.2128 18.1476 79.3852 18.2009 79.6264 18.2009C79.767 18.2009 79.8909 18.1876 79.9981 18.1609V18.9609C79.8373 19.0209 79.623 19.0509 79.3551 19.0509C78.9398 19.0509 78.6116 18.9309 78.3705 18.6909C78.1294 18.4509 78.0088 18.1142 78.0088 17.6809V15.0409H77.0845V14.1909H77.3457C77.5935 14.1909 77.7794 14.1226 77.9033 13.9859C78.0272 13.8492 78.0892 13.6709 78.0892 13.4509V12.6709H78.9532ZM85.8357 18.3109C85.4137 18.3109 85.0553 18.1609 84.7606 17.8609C84.4726 17.5542 84.3286 17.1309 84.3286 16.5909C84.3286 16.0575 84.4743 15.6392 84.7657 15.3359C85.057 15.0325 85.4137 14.8809 85.8357 14.8809C86.2576 14.8809 86.6143 15.0325 86.9057 15.3359C87.197 15.6392 87.3427 16.0575 87.3427 16.5909C87.3427 17.1309 87.197 17.5525 86.9057 17.8559C86.6143 18.1592 86.2576 18.3109 85.8357 18.3109ZM84.057 14.77C84.5259 14.2834 85.1186 14.04 85.8353 14.04C86.552 14.04 87.1431 14.2817 87.6086 14.765C88.0741 15.2484 88.3069 15.8567 88.3069 16.59C88.3069 17.33 88.0758 17.9417 87.6136 18.425C87.1515 18.9084 86.5587 19.15 85.8353 19.15C85.1119 19.15 84.5192 18.9084 84.057 18.425C83.5948 17.9417 83.3638 17.33 83.3638 16.59C83.3638 15.8567 83.5948 15.25 84.057 14.77ZM90.4571 19.0008V16.2208C90.4571 15.8408 90.5559 15.5258 90.7535 15.2758C90.9511 15.0258 91.2274 14.9008 91.5824 14.9008C92.3326 14.9008 92.7076 15.3041 92.7076 16.1108V19.0008H93.6521V15.9508C93.6521 15.3908 93.503 14.9341 93.205 14.5808C92.9069 14.2274 92.4799 14.0508 91.924 14.0508C91.2542 14.0508 90.7585 14.3274 90.437 14.8808V14.1908H89.5127V19.0008H90.4571Z" fill="white"/>
<path fill-rule="evenodd" clip-rule="evenodd" d="M66.6096 30.256V36H65.0503L64.9057 34.56C64.4073 35.392 63.2339 36.24 61.4174 36.24C58.4435 36.24 55.8071 34.064 55.8071 30.32C55.8071 26.592 58.5881 24.416 61.546 24.416C64.3109 24.416 66.0792 26 66.69 27.872L64.8735 28.56C64.4877 27.28 63.3625 26.192 61.546 26.192C59.6973 26.192 57.7683 27.504 57.7683 30.32C57.7683 33.088 59.5687 34.48 61.5299 34.48C63.8286 34.48 64.6967 32.912 64.7931 31.936H61.0316V30.256H66.6096ZM70.0337 32.0964C70.0337 33.7124 71.0786 34.5764 72.2199 34.5764C73.3773 34.5764 74.4061 33.7284 74.4061 32.0964C74.4061 30.4804 73.3773 29.6484 72.2199 29.6484C71.0786 29.6484 70.0337 30.4804 70.0337 32.0964ZM72.2199 27.968C69.889 27.968 68.1689 29.712 68.1689 32.096C68.1689 34.496 69.889 36.24 72.2199 36.24C74.5668 36.24 76.2869 34.496 76.2869 32.096C76.2869 29.712 74.5668 27.968 72.2199 27.968ZM79.3413 32.0964C79.3413 33.7124 80.3862 34.5764 81.5275 34.5764C82.6849 34.5764 83.7138 33.7284 83.7138 32.0964C83.7138 30.4804 82.6849 29.6484 81.5275 29.6484C80.3862 29.6484 79.3413 30.4804 79.3413 32.0964ZM81.5274 27.968C79.1965 27.968 77.4764 29.712 77.4764 32.096C77.4764 34.496 79.1965 36.24 81.5274 36.24C83.8744 36.24 85.5944 34.496 85.5944 32.096C85.5944 29.712 83.8744 27.968 81.5274 27.968ZM90.5615 39.2805C88.4878 39.2805 87.041 38.0005 86.832 36.4325L88.5521 35.9845C88.6807 36.9445 89.4362 37.6645 90.5132 37.6645C91.9922 37.6645 92.7316 36.9125 92.7316 35.3285V34.5125C92.394 35.1205 91.6064 35.6485 90.465 35.6485C88.3752 35.6485 86.8481 34.0485 86.8481 31.8565C86.8481 29.7765 88.3109 28.0645 90.465 28.0645C91.6867 28.0645 92.4423 28.5605 92.7798 29.2005V28.2085H94.5803V35.2645C94.5803 37.3445 93.5032 39.2805 90.5615 39.2805ZM90.7706 34.064C89.5489 34.064 88.7291 33.216 88.7291 31.856C88.7291 30.528 89.581 29.664 90.7706 29.664C91.928 29.664 92.78 30.528 92.78 31.856C92.78 33.2 91.9602 34.064 90.7706 34.064ZM98.7278 24.416V36H96.8631V24.416H98.7278ZM102.441 31.2475C102.505 30.4155 103.18 29.5195 104.354 29.5195C105.64 29.5195 106.251 30.3355 106.283 31.2475H102.441ZM104.531 34.64C105.656 34.64 106.235 34.048 106.492 33.28L108.067 33.776C107.65 35.136 106.412 36.24 104.531 36.24C102.409 36.24 100.528 34.704 100.528 32.064C100.528 29.6 102.361 27.968 104.338 27.968C106.749 27.968 108.164 29.552 108.164 32.016C108.164 32.32 108.132 32.576 108.116 32.608H102.393C102.441 33.792 103.374 34.64 104.531 34.64ZM116.025 29.8716V26.3516H118.034C119.256 26.3516 119.995 27.0396 119.995 28.1276C119.995 29.1996 119.256 29.8716 118.034 29.8716H116.025ZM121.956 28.112C121.956 30.112 120.51 31.568 118.323 31.568H116.025V36H114.096V24.656H118.323C120.51 24.656 121.956 26.128 121.956 28.112ZM125.477 36V24.416H123.612V36H125.477ZM130.058 36.24C128.419 36.24 127.406 35.12 127.406 33.888C127.406 32.496 128.435 31.728 129.769 31.536L131.778 31.232C132.228 31.168 132.357 30.944 132.357 30.672C132.357 30.016 131.907 29.488 130.878 29.488C129.898 29.488 129.351 30.112 129.271 30.896L127.567 30.512C127.711 29.168 128.933 27.968 130.862 27.968C133.273 27.968 134.19 29.328 134.19 30.88L134.191 34.9229C134.198 35.3097 134.229 35.6107 134.254 35.7973L134.286 36H132.55C132.534 35.952 132.47 35.632 132.47 35.008C132.1 35.6 131.328 36.24 130.058 36.24ZM130.412 34.784C129.672 34.784 129.271 34.304 129.271 33.776C129.271 33.136 129.737 32.816 130.315 32.72L132.357 32.416V32.768C132.357 34.288 131.457 34.784 130.412 34.784ZM136.826 39.152H138.819L143.803 28.208H141.825L139.719 33.136L137.469 28.208H135.363L138.707 35.072L136.826 39.152Z" fill="white"/>
<path d="M21.0684 14.1289C21.0119 14.3295 20.9722 14.5448 20.9722 14.7915V35.106C20.9722 35.3494 21.0104 35.5635 21.0658 35.7615L32.4464 24.9597L21.0684 14.1289Z" fill="#48A0DC"/>
<path d="M23.6008 13.3403C23.0711 13.0167 22.5489 12.9357 22.1079 13.0474L33.5361 23.9262L36.8883 20.7451L23.6008 13.3403Z" fill="#88C057"/>
<path d="M41.7869 23.4747L38.2399 21.498L34.6074 24.9458L38.308 28.4693L41.7595 26.5707C43.4428 25.6095 42.828 24.0608 41.7869 23.4747Z" fill="#FFCC66"/>
<path d="M33.5176 25.9795L22.0752 36.8387C22.5229 36.9644 23.0571 36.8897 23.6003 36.5579L36.9294 29.227L33.5176 25.9795Z" fill="#ED7161"/>
</svg>
