<svg width="260" height="41" viewBox="0 0 260 41" fill="none" xmlns="http://www.w3.org/2000/svg">
<path d="M5.0831 6.68537V12.7126H6.91579C8.11452 12.7126 9.01358 12.447 9.61294 11.9159C10.2123 11.3617 10.512 10.6227 10.512 9.69899C10.512 8.75218 10.2123 8.01321 9.61294 7.48208C9.01358 6.95094 8.16063 6.68537 7.0541 6.68537H5.0831ZM16.8745 24.9403H11.7223L6.81205 16.1072H5.15226V24.9403H0V2.49403H7.7111C8.979 2.49403 10.1086 2.65568 11.0998 2.97898C12.0911 3.32537 12.9095 3.78722 13.5549 4.36454C14.2235 4.96496 14.7306 5.68084 15.0764 6.51218C15.4222 7.34352 15.5951 8.24414 15.5951 9.21404C15.5951 11.0153 15.134 12.4586 14.2119 13.5439C13.5204 14.3522 12.6444 14.9757 11.5839 15.4145L16.8745 24.9403Z" fill="white"/>
<path d="M29.5477 23.3815C28.9483 23.9819 28.2913 24.4553 27.5767 24.8017C26.8851 25.1481 26.0437 25.3213 25.0524 25.3213C24.0151 25.3213 23.0469 25.1365 22.1478 24.7671C21.2718 24.3976 20.5111 23.8549 19.8656 23.139C19.2201 22.4231 18.713 21.5341 18.3441 20.4718C17.9753 19.4095 17.7909 18.1856 17.7909 16.8C17.7909 15.553 17.9753 14.4099 18.3441 13.3707C18.713 12.3316 19.2201 11.4425 19.8656 10.7035C20.5111 9.96455 21.2718 9.39878 22.1478 9.0062C23.0469 8.59053 24.0151 8.3827 25.0524 8.3827C25.9976 8.3827 26.8275 8.5328 27.5421 8.833C28.2798 9.13321 28.9483 9.54888 29.5477 10.08V8.72909H34.6654V24.9403H29.5477V23.3815ZM26.2627 21.0953C27.3923 21.0953 28.2683 20.6912 28.8907 19.8829C29.5131 19.0747 29.8243 18.0586 29.8243 16.8347C29.8243 15.4491 29.4785 14.3984 28.787 13.6825C28.1184 12.9666 27.2655 12.6087 26.2281 12.6087C25.0985 12.6087 24.2225 13.0128 23.6001 13.8211C23.0008 14.6062 22.7011 15.6108 22.7011 16.8347C22.7011 18.0817 23.0123 19.1093 23.6347 19.9176C24.2571 20.7027 25.1331 21.0953 26.2627 21.0953Z" fill="white"/>
<path d="M39.1979 8.72909H44.3156V10.6342C44.8458 10.0338 45.5028 9.5027 46.2866 9.04084C47.0704 8.55589 48.0962 8.31342 49.3641 8.31342C50.2632 8.31342 51.07 8.45197 51.7847 8.72909C52.4993 9.0062 53.1102 9.39878 53.6173 9.90682C54.1245 10.3918 54.5164 10.9806 54.793 11.6734C55.0697 12.3662 55.208 13.1167 55.208 13.925V24.9403H50.0903V15.3798C50.0903 14.4792 49.8482 13.7864 49.3641 13.3015C48.88 12.8165 48.223 12.574 47.3931 12.574C46.5402 12.574 45.8256 12.8743 45.2492 13.4747C44.6729 14.0751 44.3617 14.9411 44.3156 16.0726V24.9403H39.1979V8.72909Z" fill="white"/>
<path d="M70.1374 23.3815C69.5381 23.9819 68.8811 24.4553 68.1664 24.8017C67.4749 25.1481 66.6334 25.3213 65.6422 25.3213C64.6048 25.3213 63.6366 25.1365 62.7375 24.7671C61.8615 24.3976 61.1008 23.8549 60.4553 23.139C59.8099 22.4231 59.3027 21.5341 58.9339 20.4718C58.565 19.4095 58.3806 18.1856 58.3806 16.8C58.3806 15.553 58.565 14.4099 58.9339 13.3707C59.3027 12.3316 59.8099 11.4425 60.4553 10.7035C61.1008 9.96455 61.8615 9.39878 62.7375 9.0062C63.6366 8.59053 64.6048 8.3827 65.6422 8.3827C66.5873 8.3827 67.4172 8.5328 68.1318 8.833C68.8695 9.13321 69.5381 9.54888 70.1374 10.08V0H75.2551V24.9403H70.1374V23.3815ZM66.8524 21.0953C67.982 21.0953 68.858 20.6912 69.4804 19.8829C70.1029 19.0747 70.4141 18.0586 70.4141 16.8347C70.4141 15.4491 70.0683 14.3984 69.3767 13.6825C68.7082 12.9666 67.8552 12.6087 66.8178 12.6087C65.6883 12.6087 64.8123 13.0128 64.1899 13.8211C63.5905 14.6062 63.2908 15.6108 63.2908 16.8347C63.2908 18.0817 63.602 19.1093 64.2244 19.9176C64.8468 20.7027 65.7229 21.0953 66.8524 21.0953Z" fill="white"/>
<path d="M87.0138 21.0953C87.6132 21.0953 88.1319 20.9798 88.5699 20.7489C89.0309 20.518 89.4113 20.2178 89.711 19.8483C90.0337 19.4557 90.2643 19.0054 90.4026 18.4974C90.5639 17.9662 90.6446 17.412 90.6446 16.8347C90.6446 16.2573 90.5639 15.7147 90.4026 15.2066C90.2643 14.6755 90.0337 14.2252 89.711 13.8557C89.4113 13.4631 89.0309 13.1514 88.5699 12.9204C88.1319 12.6895 87.6132 12.574 87.0138 12.574C86.4145 12.574 85.8843 12.6895 85.4232 12.9204C84.9852 13.1514 84.6048 13.4631 84.2821 13.8557C83.9824 14.2252 83.7519 14.6755 83.5905 15.2066C83.4292 15.7147 83.3485 16.2573 83.3485 16.8347C83.3485 17.412 83.4292 17.9662 83.5905 18.4974C83.7519 19.0054 83.9824 19.4557 84.2821 19.8483C84.6048 20.2178 84.9852 20.518 85.4232 20.7489C85.8843 20.9798 86.4145 21.0953 87.0138 21.0953ZM87.0138 25.4598C85.6998 25.4598 84.5126 25.2405 83.4522 24.8017C82.4148 24.3398 81.5158 23.7279 80.7551 22.9658C80.0174 22.1807 79.4526 21.2685 79.0607 20.2293C78.6688 19.167 78.4728 18.0355 78.4728 16.8347C78.4728 15.6338 78.6688 14.5138 79.0607 13.4747C79.4526 12.4355 80.0174 11.5233 80.7551 10.7382C81.5158 9.95301 82.4148 9.34105 83.4522 8.90228C84.5126 8.44043 85.6998 8.2095 87.0138 8.2095C88.3278 8.2095 89.5035 8.44043 90.5409 8.90228C91.6013 9.34105 92.5004 9.95301 93.238 10.7382C93.9988 11.5233 94.5751 12.4355 94.967 13.4747C95.3589 14.5138 95.5548 15.6338 95.5548 16.8347C95.5548 18.0355 95.3589 19.167 94.967 20.2293C94.5751 21.2685 93.9988 22.1807 93.238 22.9658C92.5004 23.7279 91.6013 24.3398 90.5409 24.8017C89.5035 25.2405 88.3278 25.4598 87.0138 25.4598Z" fill="white"/>
<path d="M98.7655 0H103.883V24.9403H98.7655V0Z" fill="white"/>
<path d="M105.76 27.4343C106.175 27.5959 106.59 27.746 107.005 27.8846C107.443 28.0462 107.927 28.1271 108.457 28.1271C109.264 28.1271 109.956 27.977 110.532 27.6768C111.131 27.3996 111.627 26.8223 112.019 25.9448L112.537 24.8017L106.521 8.72909H111.777L114.958 18.151L118.139 8.72909H123.188L116.445 26.499C115.707 28.3926 114.739 29.8475 113.54 30.8636C112.341 31.9027 110.762 32.4223 108.803 32.4223C107.996 32.4223 107.212 32.33 106.452 32.1452C105.714 31.9605 104.988 31.7064 104.273 31.3831L105.76 27.4343Z" fill="white"/>
<path d="M125.443 8.72909H130.56V10.7035C131.091 10.08 131.748 9.52579 132.531 9.04084C133.338 8.55589 134.352 8.31342 135.574 8.31342C136.819 8.31342 137.88 8.57898 138.756 9.11012C139.655 9.61816 140.312 10.3456 140.727 11.2924C141.003 10.9229 141.314 10.565 141.66 10.2186C142.006 9.84909 142.398 9.52579 142.836 9.24868C143.274 8.97156 143.769 8.75218 144.323 8.59053C144.876 8.40579 145.498 8.31342 146.19 8.31342C147.919 8.31342 149.279 8.79837 150.27 9.76826C151.285 10.7151 151.792 12.0083 151.792 13.6479V24.9403H146.674V15.3798C146.674 14.4792 146.432 13.7864 145.948 13.3015C145.487 12.8165 144.853 12.574 144.046 12.574C143.239 12.574 142.559 12.8858 142.006 13.5093C141.453 14.1328 141.176 15.045 141.176 16.2458V24.9403H136.058V15.3798C136.058 14.4792 135.816 13.7864 135.332 13.3015C134.871 12.8165 134.237 12.574 133.43 12.574C132.624 12.574 131.943 12.8743 131.39 13.4747C130.86 14.0751 130.583 14.9411 130.56 16.0726V24.9403H125.443V8.72909Z" fill="white"/>
<path d="M164.642 21.1646C165.772 21.1646 166.648 20.7489 167.27 19.9176C167.893 19.0862 168.204 18.0586 168.204 16.8347C168.204 15.5877 167.881 14.5716 167.236 13.7864C166.613 12.9782 165.737 12.574 164.608 12.574C163.478 12.574 162.602 12.9897 161.98 13.8211C161.357 14.6293 161.046 15.6338 161.046 16.8347C161.046 18.2433 161.38 19.3171 162.049 20.0561C162.74 20.7951 163.605 21.1646 164.642 21.1646ZM172.561 13.2668C172.93 14.3291 173.114 15.553 173.114 16.9386C173.114 18.1856 172.941 19.3402 172.595 20.4025C172.227 21.4417 171.719 22.3308 171.074 23.0697C170.428 23.8087 169.668 24.386 168.792 24.8017C167.893 25.2174 166.913 25.4252 165.852 25.4252C164.907 25.4252 164.077 25.2866 163.363 25.0095C162.625 24.7093 161.957 24.2937 161.357 23.7625V31.21L156.24 32.0759V8.79837H161.357V10.4264C161.957 9.826 162.614 9.34105 163.328 8.97156C164.02 8.60208 164.873 8.41733 165.887 8.41733C166.924 8.41733 167.893 8.60208 168.792 8.97156C169.668 9.34105 170.428 9.88373 171.074 10.5996C171.696 11.3155 172.192 12.2046 172.561 13.2668Z" fill="white"/>
<path d="M178.891 6.20042C178.061 6.20042 177.346 5.91176 176.747 5.33444C176.17 4.75712 175.882 4.04124 175.882 3.18681C175.882 2.30928 176.17 1.58186 176.747 1.00454C177.346 0.427217 178.061 0.138557 178.891 0.138557C179.721 0.138557 180.424 0.427217 181 1.00454C181.599 1.58186 181.899 2.30928 181.899 3.18681C181.899 4.04124 181.599 4.75712 181 5.33444C180.424 5.91176 179.721 6.20042 178.891 6.20042ZM176.332 8.72909H181.449V24.9403H176.332V8.72909Z" fill="white"/>
<path d="M199.717 22.9312C199.394 23.2083 199.025 23.497 198.61 23.7972C198.218 24.0974 197.757 24.3745 197.227 24.6285C196.72 24.8594 196.143 25.0557 195.498 25.2174C194.852 25.379 194.126 25.4598 193.319 25.4598C192.005 25.4598 190.818 25.252 189.758 24.8363C188.697 24.3976 187.787 23.7856 187.026 23.0005C186.265 22.2153 185.678 21.2916 185.263 20.2293C184.871 19.167 184.675 17.9893 184.675 16.6961C184.675 15.5877 184.859 14.5254 185.228 13.5093C185.62 12.4701 186.173 11.558 186.888 10.7728C187.625 9.98765 188.513 9.36414 189.55 8.90228C190.611 8.44043 191.821 8.2095 193.181 8.2095C194.564 8.2095 195.705 8.41733 196.604 8.833C197.527 9.22558 198.322 9.6528 198.99 10.1147L196.777 13.7171C196.432 13.5324 196.005 13.3246 195.498 13.0936C194.991 12.8396 194.311 12.7126 193.458 12.7126C192.397 12.7126 191.487 13.0821 190.726 13.8211C189.988 14.5369 189.62 15.5184 189.62 16.7654C189.62 18.0586 190 19.0862 190.761 19.8483C191.544 20.6103 192.501 20.9914 193.631 20.9914C194.507 20.9914 195.21 20.8413 195.74 20.5411C196.293 20.2178 196.8 19.8945 197.261 19.5712L199.717 22.9312Z" fill="white"/>
<path d="M202.676 19.8483C203.298 20.2409 204.048 20.6334 204.924 21.026C205.823 21.4186 206.756 21.6149 207.725 21.6149C208.9 21.6149 209.488 21.2339 209.488 20.4718C209.488 20.0792 209.315 19.7906 208.969 19.6058C208.647 19.398 208.186 19.1786 207.586 18.9477L205.892 18.2895C205.223 18.0586 204.624 17.8046 204.094 17.5275C203.587 17.2272 203.137 16.8809 202.745 16.4883C202.376 16.0726 202.088 15.6107 201.881 15.1027C201.696 14.5716 201.604 13.9365 201.604 13.1975C201.604 12.4817 201.742 11.8235 202.019 11.2231C202.319 10.5996 202.734 10.0685 203.264 9.62971C203.794 9.19094 204.428 8.84455 205.166 8.59053C205.926 8.33651 206.768 8.2095 207.69 8.2095C209.027 8.2095 210.145 8.39424 211.044 8.76373C211.943 9.13321 212.762 9.54888 213.499 10.0107L211.874 13.2322C211.413 13.0013 210.814 12.7357 210.076 12.4355C209.361 12.1353 208.658 11.9852 207.967 11.9852C207.459 11.9852 207.056 12.1006 206.756 12.3316C206.48 12.5394 206.341 12.8165 206.341 13.1629C206.341 13.5555 206.468 13.8557 206.722 14.0635C206.975 14.2483 207.402 14.4561 208.001 14.687L209.626 15.2759C210.295 15.5068 210.917 15.7493 211.494 16.0033C212.07 16.2573 212.566 16.5691 212.981 16.9386C213.419 17.285 213.753 17.7122 213.983 18.2202C214.237 18.7052 214.364 19.3056 214.364 20.0215C214.364 20.7835 214.225 21.4994 213.949 22.1691C213.672 22.8157 213.269 23.393 212.739 23.9011C212.208 24.386 211.54 24.7671 210.733 25.0442C209.949 25.3213 209.027 25.4598 207.967 25.4598C206.514 25.4598 205.189 25.2405 203.99 24.8017C202.791 24.3398 201.765 23.8433 200.913 23.3122L202.676 19.8483Z" fill="white"/>
<path d="M256.24 9.26408C257.396 10.9488 257.832 15.069 257.237 17.9281C257.108 18.9074 256.733 19.8975 256.095 20.9016C253.97 24.248 249.009 27.5988 241.281 30.4595C225.922 36.1447 200.612 39.5396 169.018 37.8471L169.016 37.8829C174.077 40.5888 179.366 41.0097 190.642 40.9015L184.302 40.9992C208.999 41.0587 229.037 37.8879 242.221 33.0079C250.088 30.0958 255.764 26.4851 258.384 22.3599C259.723 20.2519 260.279 17.9798 259.866 15.6416C259.473 13.4162 258.229 11.2799 256.24 9.26408Z" fill="white"/>
</svg>
