<svg width="343" height="54" viewBox="0 0 343 54" fill="none" xmlns="http://www.w3.org/2000/svg">
<path d="M6.70579 8.80513V16.7434H9.12352C10.7049 16.7434 11.891 16.3937 12.6817 15.6941C13.4724 14.9642 13.8678 13.9909 13.8678 12.7743C13.8678 11.5273 13.4724 10.554 12.6817 9.85444C11.891 9.1549 10.7658 8.80513 9.30599 8.80513H6.70579ZM22.2614 32.8481H15.4644L8.98667 21.2144H6.79702V32.8481H0V3.28481H10.1727C11.8454 3.28481 13.3355 3.49772 14.6433 3.92353C15.951 4.37975 17.0306 4.98805 17.8821 5.74842C18.764 6.53921 19.4331 7.48208 19.8893 8.57701C20.3454 9.67195 20.5735 10.8581 20.5735 12.1356C20.5735 14.5079 19.9653 16.4089 18.7488 17.8384C17.8365 18.9029 16.6808 19.7241 15.2819 20.302L22.2614 32.8481Z" fill="#AF2626"/>
<path d="M38.9802 30.7951C38.1895 31.5859 37.3228 32.2094 36.38 32.6656C35.4677 33.1219 34.3577 33.35 33.0499 33.35C31.6814 33.35 30.4041 33.1067 29.2181 32.62C28.0624 32.1334 27.0588 31.4186 26.2073 30.4758C25.3558 29.5329 24.6867 28.3619 24.2001 26.9628C23.7135 25.5638 23.4703 23.9518 23.4703 22.1269C23.4703 20.4845 23.7135 18.9789 24.2001 17.6103C24.6867 16.2416 25.3558 15.0706 26.2073 14.0973C27.0588 13.124 28.0624 12.3789 29.2181 11.8618C30.4041 11.3144 31.6814 11.0406 33.0499 11.0406C34.2968 11.0406 35.3917 11.2383 36.3344 11.6337C37.3076 12.0291 38.1895 12.5766 38.9802 13.2761V11.4968H45.7316V32.8481H38.9802V30.7951ZM34.6466 27.784C36.1367 27.784 37.2924 27.2518 38.1135 26.1873C38.9346 25.1227 39.3452 23.7845 39.3452 22.1725C39.3452 20.3476 38.889 18.9637 37.9767 18.0209C37.0947 17.078 35.9695 16.6066 34.6009 16.6066C33.1108 16.6066 31.9551 17.1388 31.134 18.2033C30.3433 19.2374 29.948 20.5605 29.948 22.1725C29.948 23.8149 30.3585 25.1684 31.1796 26.2329C32.0007 27.267 33.1564 27.784 34.6466 27.784Z" fill="#AF2626"/>
<path d="M51.7111 11.4968H58.4625V14.0061C59.162 13.2153 60.0287 12.5157 61.0627 11.9074C62.0967 11.2687 63.45 10.9494 65.1227 10.9494C66.3087 10.9494 67.3732 11.1319 68.3159 11.4968C69.2587 11.8618 70.0646 12.3789 70.7337 13.048C71.4027 13.6867 71.9197 14.4623 72.2846 15.3748C72.6496 16.2872 72.8321 17.2757 72.8321 18.3402V32.8481H66.0807V20.2563C66.0807 19.0702 65.7613 18.1577 65.1227 17.519C64.484 16.8803 63.6173 16.5609 62.5225 16.5609C61.3972 16.5609 60.4545 16.9563 59.6942 17.7471C58.9339 18.5379 58.5233 19.6785 58.4625 21.1688V32.8481H51.7111V11.4968Z" fill="#AF2626"/>
<path d="M92.5275 30.7951C91.7367 31.5859 90.87 32.2094 89.9273 32.6656C89.0149 33.1219 87.9049 33.35 86.5972 33.35C85.2286 33.35 83.9513 33.1067 82.7653 32.62C81.6096 32.1334 80.6061 31.4186 79.7545 30.4758C78.903 29.5329 78.2339 28.3619 77.7474 26.9628C77.2608 25.5638 77.0175 23.9518 77.0175 22.1269C77.0175 20.4845 77.2608 18.9789 77.7474 17.6103C78.2339 16.2416 78.903 15.0706 79.7545 14.0973C80.6061 13.124 81.6096 12.3789 82.7653 11.8618C83.9513 11.3144 85.2286 11.0406 86.5972 11.0406C87.844 11.0406 88.9389 11.2383 89.8816 11.6337C90.8548 12.0291 91.7367 12.5766 92.5275 13.2761V0H99.2789V32.8481H92.5275V30.7951ZM88.1938 27.784C89.684 27.784 90.8396 27.2518 91.6607 26.1873C92.4818 25.1227 92.8924 23.7845 92.8924 22.1725C92.8924 20.3476 92.4362 18.9637 91.5239 18.0209C90.6419 17.078 89.5167 16.6066 88.1482 16.6066C86.658 16.6066 85.5023 17.1388 84.6812 18.2033C83.8905 19.2374 83.4952 20.5605 83.4952 22.1725C83.4952 23.8149 83.9057 25.1684 84.7268 26.2329C85.548 27.267 86.7036 27.784 88.1938 27.784Z" fill="#AF2626"/>
<path d="M114.791 27.784C115.582 27.784 116.266 27.632 116.844 27.3278C117.452 27.0237 117.954 26.6283 118.35 26.1416C118.775 25.6246 119.079 25.0315 119.262 24.3624C119.475 23.6628 119.581 22.9329 119.581 22.1725C119.581 21.4121 119.475 20.6974 119.262 20.0282C119.079 19.3287 118.775 18.7356 118.35 18.249C117.954 17.7319 117.452 17.3213 116.844 17.0172C116.266 16.713 115.582 16.5609 114.791 16.5609C114.001 16.5609 113.301 16.713 112.693 17.0172C112.115 17.3213 111.613 17.7319 111.188 18.249C110.792 18.7356 110.488 19.3287 110.275 20.0282C110.062 20.6974 109.956 21.4121 109.956 22.1725C109.956 22.9329 110.062 23.6628 110.275 24.3624C110.488 25.0315 110.792 25.6246 111.188 26.1416C111.613 26.6283 112.115 27.0237 112.693 27.3278C113.301 27.632 114.001 27.784 114.791 27.784ZM114.791 33.5325C113.058 33.5325 111.492 33.2435 110.093 32.6656C108.724 32.0573 107.538 31.2513 106.535 30.2477C105.561 29.2135 104.816 28.0122 104.299 26.6435C103.782 25.2444 103.524 23.7541 103.524 22.1725C103.524 20.5909 103.782 19.1158 104.299 17.7471C104.816 16.3784 105.561 15.1771 106.535 14.1429C107.538 13.1088 108.724 12.3028 110.093 11.725C111.492 11.1167 113.058 10.8125 114.791 10.8125C116.525 10.8125 118.076 11.1167 119.444 11.725C120.843 12.3028 122.029 13.1088 123.003 14.1429C124.006 15.1771 124.766 16.3784 125.283 17.7471C125.8 19.1158 126.059 20.5909 126.059 22.1725C126.059 23.7541 125.8 25.2444 125.283 26.6435C124.766 28.0122 124.006 29.2135 123.003 30.2477C122.029 31.2513 120.843 32.0573 119.444 32.6656C118.076 33.2435 116.525 33.5325 114.791 33.5325Z" fill="#AF2626"/>
<path d="M130.295 0H137.046V32.8481H130.295V0Z" fill="#AF2626"/>
<path d="M139.522 36.1329C140.069 36.3459 140.617 36.5435 141.164 36.726C141.742 36.9389 142.38 37.0454 143.08 37.0454C144.144 37.0454 145.057 36.8477 145.817 36.4523C146.608 36.0873 147.262 35.327 147.779 34.1712L148.463 32.6656L140.525 11.4968H147.459L151.656 23.9061L155.853 11.4968H162.513L153.618 34.9011C152.644 37.3952 151.367 39.3113 149.786 40.6496C148.204 42.0182 146.121 42.7026 143.536 42.7026C142.472 42.7026 141.438 42.5809 140.434 42.3376C139.461 42.0943 138.503 41.7597 137.56 41.3339L139.522 36.1329Z" fill="#AF2626"/>
<path d="M165.488 11.4968H172.239V14.0973C172.939 13.2761 173.805 12.5462 174.839 11.9074C175.904 11.2687 177.242 10.9494 178.854 10.9494C180.496 10.9494 181.895 11.2991 183.051 11.9987C184.237 12.6678 185.103 13.6259 185.651 14.8729C186.016 14.3863 186.426 13.9148 186.882 13.4586C187.339 12.972 187.856 12.5462 188.433 12.1812C189.011 11.8162 189.665 11.5273 190.395 11.3144C191.125 11.071 191.946 10.9494 192.858 10.9494C195.139 10.9494 196.934 11.5881 198.241 12.8655C199.579 14.1125 200.248 15.8158 200.248 17.9752V32.8481H193.497V20.2563C193.497 19.0702 193.178 18.1577 192.539 17.519C191.931 16.8803 191.094 16.5609 190.03 16.5609C188.966 16.5609 188.069 16.9715 187.339 17.7927C186.609 18.6139 186.244 19.8153 186.244 21.3969V32.8481H179.492V20.2563C179.492 19.0702 179.173 18.1577 178.534 17.519C177.926 16.8803 177.09 16.5609 176.025 16.5609C174.961 16.5609 174.064 16.9563 173.334 17.7471C172.635 18.5379 172.27 19.6785 172.239 21.1688V32.8481H165.488V11.4968Z" fill="#AF2626"/>
<path d="M217.201 27.8753C218.691 27.8753 219.847 27.3278 220.668 26.2329C221.489 25.1379 221.9 23.7845 221.9 22.1725C221.9 20.5301 221.474 19.1918 220.622 18.1577C219.801 17.0932 218.646 16.5609 217.155 16.5609C215.665 16.5609 214.51 17.1084 213.689 18.2033C212.867 19.2679 212.457 20.5909 212.457 22.1725C212.457 24.0278 212.898 25.4421 213.78 26.4154C214.692 27.3887 215.833 27.8753 217.201 27.8753ZM227.648 17.4734C228.134 18.8725 228.377 20.4845 228.377 22.3094C228.377 23.9518 228.149 25.4725 227.693 26.8716C227.207 28.2403 226.537 29.4112 225.686 30.3845C224.834 31.3578 223.831 32.1182 222.675 32.6656C221.489 33.2131 220.197 33.4868 218.798 33.4868C217.551 33.4868 216.456 33.3044 215.513 32.9394C214.54 32.544 213.658 31.9965 212.867 31.297V41.1058L206.116 42.2463V11.5881H212.867V13.7323C213.658 12.9416 214.525 12.3028 215.468 11.8162C216.38 11.3296 217.505 11.0862 218.843 11.0862C220.212 11.0862 221.489 11.3296 222.675 11.8162C223.831 12.3028 224.834 13.0176 225.686 13.9605C226.507 14.9033 227.161 16.0743 227.648 17.4734Z" fill="#AF2626"/>
<path d="M235.998 8.16641C234.903 8.16641 233.96 7.78622 233.17 7.02585C232.409 6.26548 232.029 5.32261 232.029 4.19726C232.029 3.04149 232.409 2.08342 233.17 1.32305C233.96 0.562676 234.903 0.18249 235.998 0.18249C237.093 0.18249 238.02 0.562676 238.781 1.32305C239.571 2.08342 239.967 3.04149 239.967 4.19726C239.967 5.32261 239.571 6.26548 238.781 7.02585C238.02 7.78622 237.093 8.16641 235.998 8.16641ZM232.622 11.4968H239.374V32.8481H232.622V11.4968Z" fill="#AF2626"/>
<path d="M263.472 30.202C263.047 30.567 262.56 30.9472 262.013 31.3426C261.496 31.738 260.887 32.103 260.188 32.4375C259.519 32.7417 258.758 33.0002 257.907 33.2131C257.055 33.426 256.097 33.5325 255.033 33.5325C253.3 33.5325 251.733 33.2587 250.334 32.7113C248.935 32.1334 247.734 31.3274 246.731 30.2933C245.727 29.2592 244.952 28.0426 244.404 26.6435C243.887 25.2444 243.629 23.6932 243.629 21.99C243.629 20.5301 243.872 19.131 244.359 17.7927C244.876 16.4241 245.605 15.2227 246.548 14.1886C247.521 13.1545 248.692 12.3333 250.061 11.725C251.46 11.1167 253.056 10.8125 254.851 10.8125C256.675 10.8125 258.181 11.0862 259.367 11.6337C260.583 12.1508 261.632 12.7134 262.514 13.3217L259.595 18.0665C259.139 17.8232 258.576 17.5494 257.907 17.2453C257.238 16.9107 256.341 16.7434 255.215 16.7434C253.817 16.7434 252.615 17.2301 251.612 18.2033C250.639 19.1462 250.152 20.4388 250.152 22.0812C250.152 23.7845 250.654 25.1379 251.657 26.1416C252.691 27.1453 253.953 27.6472 255.444 27.6472C256.599 27.6472 257.527 27.4495 258.226 27.0541C258.956 26.6283 259.625 26.2025 260.233 25.7767L263.472 30.202Z" fill="#AF2626"/>
<path d="M267.376 26.1416C268.198 26.6587 269.186 27.1757 270.342 27.6928C271.528 28.2099 272.759 28.4684 274.037 28.4684C275.588 28.4684 276.363 27.9665 276.363 26.9628C276.363 26.4458 276.135 26.0656 275.679 25.8223C275.253 25.5485 274.645 25.2596 273.854 24.9555L271.619 24.0886C270.737 23.7845 269.946 23.4499 269.247 23.0849C268.578 22.6895 267.985 22.2333 267.468 21.7163C266.981 21.1688 266.601 20.5605 266.327 19.8914C266.084 19.1918 265.962 18.3554 265.962 17.3821C265.962 16.4393 266.145 15.5724 266.51 14.7817C266.905 13.9605 267.453 13.2609 268.152 12.683C268.851 12.1051 269.688 11.6489 270.661 11.3144C271.665 10.9798 272.775 10.8125 273.991 10.8125C275.755 10.8125 277.23 11.0558 278.416 11.5425C279.602 12.0291 280.682 12.5766 281.655 13.1849L279.511 17.4278C278.903 17.1236 278.112 16.7738 277.139 16.3784C276.196 15.9831 275.268 15.7854 274.356 15.7854C273.687 15.7854 273.155 15.9374 272.759 16.2416C272.394 16.5153 272.212 16.8803 272.212 17.3365C272.212 17.8536 272.379 18.249 272.714 18.5227C273.048 18.766 273.611 19.0398 274.402 19.3439L276.546 20.1195C277.428 20.4236 278.249 20.743 279.009 21.0776C279.769 21.4121 280.423 21.8227 280.971 22.3094C281.548 22.7656 281.989 23.3283 282.293 23.9974C282.628 24.6361 282.795 25.4269 282.795 26.3698C282.795 27.3734 282.613 28.3163 282.248 29.1983C281.883 30.05 281.351 30.8103 280.651 31.4795C279.952 32.1182 279.07 32.62 278.005 32.985C276.971 33.35 275.755 33.5325 274.356 33.5325C272.44 33.5325 270.691 33.2435 269.11 32.6656C267.529 32.0573 266.175 31.4034 265.05 30.7039L267.376 26.1416Z" fill="#AF2626"/>
<path d="M338.04 12.2015C339.565 14.4204 340.14 19.847 339.355 23.6126C339.185 24.9024 338.69 26.2064 337.849 27.5289C335.045 31.9363 328.5 36.3497 318.305 40.1174C298.043 47.6053 264.654 52.0765 222.973 49.8474L222.971 49.8946C229.647 53.4584 236.625 54.0128 251.501 53.8702L243.137 53.9989C275.718 54.0773 302.153 49.9011 319.545 43.4738C329.924 39.6383 337.411 34.8828 340.868 29.4497C342.634 26.6733 343.368 23.6807 342.824 20.6012C342.305 17.6701 340.663 14.8565 338.04 12.2015Z" fill="url(#paint0_linear_26_6)"/>
<defs>
<linearGradient id="paint0_linear_26_6" x1="222.782" y1="33.1007" x2="343" y2="33.1007" gradientUnits="userSpaceOnUse">
<stop stop-color="#FF0000"/>
<stop offset="0.22" stop-color="#FAFF00"/>
<stop offset="0.39" stop-color="#CCFF00"/>
<stop offset="0.545" stop-color="#00B0FB"/>
<stop offset="0.68" stop-color="#004BDD"/>
<stop offset="0.82" stop-color="#1D00CD"/>
<stop offset="1" stop-color="#8F00FF"/>
</linearGradient>
</defs>
</svg>
