<svg width="416" height="16" viewBox="0 0 416 16" fill="none" xmlns="http://www.w3.org/2000/svg">
<path d="M129.488 12.098C128.583 12.098 127.747 11.888 126.982 11.468C126.226 11.0387 125.624 10.446 125.176 9.69C124.737 8.92467 124.518 8.066 124.518 7.114C124.518 6.162 124.737 5.308 125.176 4.552C125.624 3.796 126.226 3.208 126.982 2.788C127.747 2.35867 128.583 2.144 129.488 2.144C130.403 2.144 131.238 2.35867 131.994 2.788C132.759 3.208 133.361 3.796 133.8 4.552C134.239 5.308 134.458 6.162 134.458 7.114C134.458 8.066 134.239 8.92467 133.8 9.69C133.361 10.446 132.759 11.0387 131.994 11.468C131.238 11.888 130.403 12.098 129.488 12.098ZM129.488 10.712C130.132 10.712 130.706 10.5673 131.21 10.278C131.714 9.97933 132.106 9.55933 132.386 9.018C132.675 8.46733 132.82 7.83267 132.82 7.114C132.82 6.39533 132.675 5.76533 132.386 5.224C132.106 4.68267 131.714 4.26733 131.21 3.978C130.706 3.68867 130.132 3.544 129.488 3.544C128.844 3.544 128.27 3.68867 127.766 3.978C127.262 4.26733 126.865 4.68267 126.576 5.224C126.296 5.76533 126.156 6.39533 126.156 7.114C126.156 7.83267 126.296 8.46733 126.576 9.018C126.865 9.55933 127.262 9.97933 127.766 10.278C128.27 10.5673 128.844 10.712 129.488 10.712ZM138.451 5.588V9.858C138.451 10.1473 138.516 10.3573 138.647 10.488C138.787 10.6093 139.02 10.67 139.347 10.67H140.327V12H139.067C138.348 12 137.797 11.832 137.415 11.496C137.032 11.16 136.841 10.614 136.841 9.858V5.588H135.931V4.286H136.841V2.368H138.451V4.286H140.327V5.588H138.451ZM146.348 4.16C146.936 4.16 147.458 4.286 147.916 4.538C148.382 4.79 148.746 5.16333 149.008 5.658C149.278 6.15267 149.414 6.75 149.414 7.45V12H147.832V7.688C147.832 6.99733 147.659 6.47 147.314 6.106C146.968 5.73267 146.497 5.546 145.9 5.546C145.302 5.546 144.826 5.73267 144.472 6.106C144.126 6.47 143.954 6.99733 143.954 7.688V12H142.358V1.64H143.954V5.182C144.224 4.85533 144.565 4.60333 144.976 4.426C145.396 4.24867 145.853 4.16 146.348 4.16ZM159.079 7.954C159.079 8.24333 159.061 8.50467 159.023 8.738H153.129C153.176 9.354 153.405 9.84867 153.815 10.222C154.226 10.5953 154.73 10.782 155.327 10.782C156.186 10.782 156.793 10.4227 157.147 9.704H158.869C158.636 10.4133 158.211 10.9967 157.595 11.454C156.989 11.902 156.233 12.126 155.327 12.126C154.59 12.126 153.927 11.9627 153.339 11.636C152.761 11.3 152.303 10.8333 151.967 10.236C151.641 9.62933 151.477 8.92933 151.477 8.136C151.477 7.34267 151.636 6.64733 151.953 6.05C152.28 5.44333 152.733 4.97667 153.311 4.65C153.899 4.32333 154.571 4.16 155.327 4.16C156.055 4.16 156.704 4.31867 157.273 4.636C157.843 4.95333 158.286 5.40133 158.603 5.98C158.921 6.54933 159.079 7.20733 159.079 7.954ZM157.413 7.45C157.404 6.862 157.194 6.39067 156.783 6.036C156.373 5.68133 155.864 5.504 155.257 5.504C154.707 5.504 154.235 5.68133 153.843 6.036C153.451 6.38133 153.218 6.85267 153.143 7.45H157.413ZM162.806 5.406C163.039 5.014 163.347 4.71067 163.73 4.496C164.122 4.272 164.584 4.16 165.116 4.16V5.812H164.71C164.085 5.812 163.609 5.97067 163.282 6.288C162.965 6.60533 162.806 7.156 162.806 7.94V12H161.21V4.286H162.806V5.406ZM174.546 12.098C173.892 12.098 173.304 11.986 172.782 11.762C172.259 11.5287 171.848 11.202 171.55 10.782C171.251 10.362 171.102 9.872 171.102 9.312H172.81C172.847 9.732 173.01 10.0773 173.3 10.348C173.598 10.6187 174.014 10.754 174.546 10.754C175.096 10.754 175.526 10.6233 175.834 10.362C176.142 10.0913 176.296 9.746 176.296 9.326C176.296 8.99933 176.198 8.73333 176.002 8.528C175.815 8.32267 175.577 8.164 175.288 8.052C175.008 7.94 174.616 7.81867 174.112 7.688C173.477 7.52 172.959 7.352 172.558 7.184C172.166 7.00667 171.83 6.736 171.55 6.372C171.27 6.008 171.13 5.52267 171.13 4.916C171.13 4.356 171.27 3.866 171.55 3.446C171.83 3.026 172.222 2.704 172.726 2.48C173.23 2.256 173.813 2.144 174.476 2.144C175.418 2.144 176.188 2.382 176.786 2.858C177.392 3.32467 177.728 3.96867 177.794 4.79H176.03C176.002 4.43533 175.834 4.132 175.526 3.88C175.218 3.628 174.812 3.502 174.308 3.502C173.85 3.502 173.477 3.61867 173.188 3.852C172.898 4.08533 172.754 4.42133 172.754 4.86C172.754 5.15867 172.842 5.406 173.02 5.602C173.206 5.78867 173.44 5.938 173.72 6.05C174 6.162 174.382 6.28333 174.868 6.414C175.512 6.59133 176.034 6.76867 176.436 6.946C176.846 7.12333 177.192 7.39867 177.472 7.772C177.761 8.136 177.906 8.626 177.906 9.242C177.906 9.73667 177.77 10.2033 177.5 10.642C177.238 11.0807 176.851 11.4353 176.338 11.706C175.834 11.9673 175.236 12.098 174.546 12.098ZM181.161 3.264C180.872 3.264 180.629 3.166 180.433 2.97C180.237 2.774 180.139 2.53133 180.139 2.242C180.139 1.95267 180.237 1.71 180.433 1.514C180.629 1.318 180.872 1.22 181.161 1.22C181.441 1.22 181.679 1.318 181.875 1.514C182.071 1.71 182.169 1.95267 182.169 2.242C182.169 2.53133 182.071 2.774 181.875 2.97C181.679 3.166 181.441 3.264 181.161 3.264ZM181.945 4.286V12H180.349V4.286H181.945ZM187.708 4.16C188.306 4.16 188.833 4.28133 189.29 4.524C189.757 4.75733 190.121 5.05133 190.382 5.406V4.286H191.992V12.126C191.992 12.8353 191.843 13.4653 191.544 14.016C191.246 14.576 190.812 15.0147 190.242 15.332C189.682 15.6493 189.01 15.808 188.226 15.808C187.181 15.808 186.313 15.5607 185.622 15.066C184.932 14.5807 184.54 13.918 184.446 13.078H186.028C186.15 13.4793 186.406 13.8013 186.798 14.044C187.2 14.296 187.676 14.422 188.226 14.422C188.87 14.422 189.388 14.226 189.78 13.834C190.182 13.442 190.382 12.8727 190.382 12.126V10.838C190.112 11.202 189.743 11.51 189.276 11.762C188.819 12.0047 188.296 12.126 187.708 12.126C187.036 12.126 186.42 11.958 185.86 11.622C185.31 11.2767 184.871 10.8007 184.544 10.194C184.227 9.578 184.068 8.88267 184.068 8.108C184.068 7.33333 184.227 6.64733 184.544 6.05C184.871 5.45267 185.31 4.99067 185.86 4.664C186.42 4.328 187.036 4.16 187.708 4.16ZM190.382 8.136C190.382 7.604 190.27 7.142 190.046 6.75C189.832 6.358 189.547 6.05933 189.192 5.854C188.838 5.64867 188.455 5.546 188.044 5.546C187.634 5.546 187.251 5.64867 186.896 5.854C186.542 6.05 186.252 6.344 186.028 6.736C185.814 7.11867 185.706 7.576 185.706 8.108C185.706 8.64 185.814 9.10667 186.028 9.508C186.252 9.90933 186.542 10.2173 186.896 10.432C187.26 10.6373 187.643 10.74 188.044 10.74C188.455 10.74 188.838 10.6373 189.192 10.432C189.547 10.2267 189.832 9.928 190.046 9.536C190.27 9.13467 190.382 8.668 190.382 8.136ZM198.541 4.16C199.147 4.16 199.689 4.286 200.165 4.538C200.65 4.79 201.028 5.16333 201.299 5.658C201.569 6.15267 201.705 6.75 201.705 7.45V12H200.123V7.688C200.123 6.99733 199.95 6.47 199.605 6.106C199.259 5.73267 198.788 5.546 198.191 5.546C197.593 5.546 197.117 5.73267 196.763 6.106C196.417 6.47 196.245 6.99733 196.245 7.688V12H194.649V4.286H196.245V5.168C196.506 4.85067 196.837 4.60333 197.239 4.426C197.649 4.24867 198.083 4.16 198.541 4.16ZM210.093 2.27V12H208.497V2.27H210.093ZM216.641 4.16C217.247 4.16 217.789 4.286 218.265 4.538C218.75 4.79 219.128 5.16333 219.399 5.658C219.669 6.15267 219.805 6.75 219.805 7.45V12H218.223V7.688C218.223 6.99733 218.05 6.47 217.705 6.106C217.359 5.73267 216.888 5.546 216.291 5.546C215.693 5.546 215.217 5.73267 214.863 6.106C214.517 6.47 214.345 6.99733 214.345 7.688V12H212.749V4.286H214.345V5.168C214.606 4.85067 214.937 4.60333 215.339 4.426C215.749 4.24867 216.183 4.16 216.641 4.16ZM236.845 2.27V12H235.249V5.336L232.281 12H231.175L228.193 5.336V12H226.597V2.27H228.319L231.735 9.9L235.137 2.27H236.845ZM246.573 7.954C246.573 8.24333 246.554 8.50467 246.517 8.738H240.623C240.669 9.354 240.898 9.84867 241.309 10.222C241.719 10.5953 242.223 10.782 242.821 10.782C243.679 10.782 244.286 10.4227 244.641 9.704H246.363C246.129 10.4133 245.705 10.9967 245.089 11.454C244.482 11.902 243.726 12.126 242.821 12.126C242.083 12.126 241.421 11.9627 240.833 11.636C240.254 11.3 239.797 10.8333 239.461 10.236C239.134 9.62933 238.971 8.92933 238.971 8.136C238.971 7.34267 239.129 6.64733 239.447 6.05C239.773 5.44333 240.226 4.97667 240.805 4.65C241.393 4.32333 242.065 4.16 242.821 4.16C243.549 4.16 244.197 4.31867 244.767 4.636C245.336 4.95333 245.779 5.40133 246.097 5.98C246.414 6.54933 246.573 7.20733 246.573 7.954ZM244.907 7.45C244.897 6.862 244.687 6.39067 244.277 6.036C243.866 5.68133 243.357 5.504 242.751 5.504C242.2 5.504 241.729 5.68133 241.337 6.036C240.945 6.38133 240.711 6.85267 240.637 7.45H244.907ZM250.565 5.588V9.858C250.565 10.1473 250.631 10.3573 250.761 10.488C250.901 10.6093 251.135 10.67 251.461 10.67H252.441V12H251.181C250.463 12 249.912 11.832 249.529 11.496C249.147 11.16 248.955 10.614 248.955 9.858V5.588H248.045V4.286H248.955V2.368H250.565V4.286H252.441V5.588H250.565ZM258.462 4.16C259.05 4.16 259.573 4.286 260.03 4.538C260.497 4.79 260.861 5.16333 261.122 5.658C261.393 6.15267 261.528 6.75 261.528 7.45V12H259.946V7.688C259.946 6.99733 259.774 6.47 259.428 6.106C259.083 5.73267 258.612 5.546 258.014 5.546C257.417 5.546 256.941 5.73267 256.586 6.106C256.241 6.47 256.068 6.99733 256.068 7.688V12H254.472V1.64H256.068V5.182C256.339 4.85533 256.68 4.60333 257.09 4.426C257.51 4.24867 257.968 4.16 258.462 4.16ZM267.47 12.126C266.742 12.126 266.084 11.9627 265.496 11.636C264.908 11.3 264.446 10.8333 264.11 10.236C263.774 9.62933 263.606 8.92933 263.606 8.136C263.606 7.352 263.779 6.65667 264.124 6.05C264.469 5.44333 264.941 4.97667 265.538 4.65C266.135 4.32333 266.803 4.16 267.54 4.16C268.277 4.16 268.945 4.32333 269.542 4.65C270.139 4.97667 270.611 5.44333 270.956 6.05C271.301 6.65667 271.474 7.352 271.474 8.136C271.474 8.92 271.297 9.61533 270.942 10.222C270.587 10.8287 270.102 11.3 269.486 11.636C268.879 11.9627 268.207 12.126 267.47 12.126ZM267.47 10.74C267.881 10.74 268.263 10.642 268.618 10.446C268.982 10.25 269.276 9.956 269.5 9.564C269.724 9.172 269.836 8.696 269.836 8.136C269.836 7.576 269.729 7.10467 269.514 6.722C269.299 6.33 269.015 6.036 268.66 5.84C268.305 5.644 267.923 5.546 267.512 5.546C267.101 5.546 266.719 5.644 266.364 5.84C266.019 6.036 265.743 6.33 265.538 6.722C265.333 7.10467 265.23 7.576 265.23 8.136C265.23 8.96667 265.44 9.61067 265.86 10.068C266.289 10.516 266.826 10.74 267.47 10.74ZM273.08 8.108C273.08 7.33333 273.239 6.64733 273.556 6.05C273.883 5.45267 274.321 4.99067 274.872 4.664C275.432 4.328 276.053 4.16 276.734 4.16C277.238 4.16 277.733 4.272 278.218 4.496C278.713 4.71067 279.105 5 279.394 5.364V1.64H281.004V12H279.394V10.838C279.133 11.2113 278.769 11.5193 278.302 11.762C277.845 12.0047 277.317 12.126 276.72 12.126C276.048 12.126 275.432 11.958 274.872 11.622C274.321 11.2767 273.883 10.8007 273.556 10.194C273.239 9.578 273.08 8.88267 273.08 8.108ZM279.394 8.136C279.394 7.604 279.282 7.142 279.058 6.75C278.843 6.358 278.559 6.05933 278.204 5.854C277.849 5.64867 277.467 5.546 277.056 5.546C276.645 5.546 276.263 5.64867 275.908 5.854C275.553 6.05 275.264 6.344 275.04 6.736C274.825 7.11867 274.718 7.576 274.718 8.108C274.718 8.64 274.825 9.10667 275.04 9.508C275.264 9.90933 275.553 10.2173 275.908 10.432C276.272 10.6373 276.655 10.74 277.056 10.74C277.467 10.74 277.849 10.6373 278.204 10.432C278.559 10.2267 278.843 9.928 279.058 9.536C279.282 9.13467 279.394 8.668 279.394 8.136ZM286.46 12.126C285.853 12.126 285.307 12.0187 284.822 11.804C284.346 11.58 283.968 11.2813 283.688 10.908C283.408 10.5253 283.259 10.1007 283.24 9.634H284.892C284.92 9.96067 285.074 10.236 285.354 10.46C285.643 10.6747 286.003 10.782 286.432 10.782C286.88 10.782 287.225 10.698 287.468 10.53C287.72 10.3527 287.846 10.1287 287.846 9.858C287.846 9.56867 287.706 9.354 287.426 9.214C287.155 9.074 286.721 8.92 286.124 8.752C285.545 8.59333 285.074 8.43933 284.71 8.29C284.346 8.14067 284.029 7.912 283.758 7.604C283.497 7.296 283.366 6.89 283.366 6.386C283.366 5.97533 283.487 5.602 283.73 5.266C283.973 4.92067 284.318 4.65 284.766 4.454C285.223 4.258 285.746 4.16 286.334 4.16C287.211 4.16 287.916 4.384 288.448 4.832C288.989 5.27067 289.279 5.87267 289.316 6.638H287.72C287.692 6.29267 287.552 6.01733 287.3 5.812C287.048 5.60667 286.707 5.504 286.278 5.504C285.858 5.504 285.536 5.58333 285.312 5.742C285.088 5.90067 284.976 6.11067 284.976 6.372C284.976 6.57733 285.051 6.75 285.2 6.89C285.349 7.03 285.531 7.142 285.746 7.226C285.961 7.30067 286.278 7.39867 286.698 7.52C287.258 7.66933 287.715 7.82333 288.07 7.982C288.434 8.13133 288.747 8.35533 289.008 8.654C289.269 8.95267 289.405 9.34933 289.414 9.844C289.414 10.2827 289.293 10.6747 289.05 11.02C288.807 11.3653 288.462 11.636 288.014 11.832C287.575 12.028 287.057 12.126 286.46 12.126Z" fill="#ABABAB"/>
<line x1="-4.37114e-08" y1="7.5" x2="105" y2="7.49999" stroke="#ABABAB"/>
<line x1="311" y1="7.5" x2="416" y2="7.49999" stroke="#ABABAB"/>
</svg>
