<svg id="Capa_1" data-name="Capa 1" xmlns="http://www.w3.org/2000/svg" viewBox="0 0 45.33 21.17"><defs><style>.cls-1{fill:#d24949;}</style></defs><path class="cls-1" d="M20.56,2.63V6.4h1.15a2.49,2.49,0,0,0,1.69-.49A1.81,1.81,0,0,0,24,4.52a1.74,1.74,0,0,0-.57-1.39,2.29,2.29,0,0,0-1.6-.5ZM28,14.07H24.73L21.65,8.53h-1v5.54H17.37V0h4.84a7,7,0,0,1,2.13.3,4.66,4.66,0,0,1,1.54.87,3.65,3.65,0,0,1,.95,1.35,4.28,4.28,0,0,1,.33,1.69,4.06,4.06,0,0,1-.87,2.72A4.34,4.34,0,0,1,24.64,8.1Z"/><path class="cls-1" d="M43.46,5.37A7,7,0,0,1,44,9.69a3.8,3.8,0,0,1-.57,1.47c-1.06,1.67-3.53,3.34-7.39,4.76-7.65,2.83-20.26,4.52-36,3.68v0c2.52,1.34,5.16,1.55,10.78,1.5l-3.16.05c12.3,0,22.28-1.55,28.85-4,3.92-1.45,6.75-3.25,8.06-5.3a4.68,4.68,0,0,0,.74-3.34A6.18,6.18,0,0,0,43.46,5.37Z"/></svg>