<svg width="527" height="83" viewBox="0 0 527 83" fill="none" xmlns="http://www.w3.org/2000/svg">
<path d="M10.3031 13.5338V25.7353H14.0178C16.4475 25.7353 18.2698 25.1977 19.4847 24.1224C20.6996 23.0005 21.307 21.5045 21.307 19.6345C21.307 17.7178 20.6996 16.2219 19.4847 15.1466C18.2698 14.0714 16.541 13.5338 14.2981 13.5338H10.3031ZM34.2034 50.4888H23.7601L13.8075 32.6073H10.4432V50.4888H0V5.04888H15.6298C18.1997 5.04888 20.4893 5.37612 22.4985 6.03061C24.5077 6.73184 26.1665 7.66682 27.4748 8.83554C28.8299 10.051 29.8578 11.5002 30.5587 13.1832C31.2596 14.8661 31.6101 16.6894 31.6101 18.6528C31.6101 22.2992 30.6756 25.221 28.8065 27.4182C27.4047 29.0544 25.6292 30.3167 23.4798 31.2049L34.2034 50.4888Z" fill="#AF2626"/>
<path d="M59.8909 47.3333C58.676 48.5487 57.3444 49.5071 55.8959 50.2083C54.4941 50.9095 52.7886 51.2602 50.7794 51.2602C48.6767 51.2602 46.7142 50.8862 44.8919 50.1382C43.1163 49.3902 41.5744 48.2916 40.266 46.8424C38.9577 45.3932 37.9297 43.5933 37.1821 41.4429C36.4345 39.2924 36.0607 36.8147 36.0607 34.0098C36.0607 31.4854 36.4345 29.1713 37.1821 27.0676C37.9297 24.9639 38.9577 23.1641 40.266 21.6681C41.5744 20.1721 43.1163 19.0268 44.8919 18.2321C46.7142 17.3906 48.6767 16.9698 50.7794 16.9698C52.6951 16.9698 54.3773 17.2737 55.8258 17.8814C57.321 18.4892 58.676 19.3307 59.8909 20.4059V17.6711H70.2641V50.4888H59.8909V47.3333ZM53.2325 42.7051C55.522 42.7051 57.2976 41.887 58.5592 40.2508C59.8208 38.6146 60.4516 36.5576 60.4516 34.0799C60.4516 31.275 59.7507 29.1479 58.349 27.6987C56.9939 26.2495 55.2651 25.5249 53.1624 25.5249C50.8728 25.5249 49.0972 26.343 47.8356 27.9792C46.6208 29.5687 46.0133 31.6022 46.0133 34.0799C46.0133 36.6044 46.6441 38.6847 47.9057 40.3209C49.1673 41.9104 50.9429 42.7051 53.2325 42.7051Z" fill="#AF2626"/>
<path d="M79.4512 17.6711H89.8243V21.5279C90.899 20.3124 92.2307 19.2372 93.8194 18.3022C95.4081 17.3205 97.4874 16.8296 100.057 16.8296C101.88 16.8296 103.515 17.1101 104.964 17.6711C106.412 18.2321 107.65 19.0268 108.678 20.0553C109.706 21.037 110.501 22.2291 111.061 23.6316C111.622 25.034 111.902 26.5534 111.902 28.1896V50.4888H101.529V31.1348C101.529 29.3116 101.039 27.9091 100.057 26.9274C99.0761 25.9456 97.7444 25.4548 96.0622 25.4548C94.3334 25.4548 92.8849 26.0625 91.7167 27.278C90.5486 28.4934 89.9178 30.2465 89.8243 32.5372V50.4888H79.4512V17.6711Z" fill="#AF2626"/>
<path d="M142.163 47.3333C140.948 48.5487 139.617 49.5071 138.168 50.2083C136.766 50.9095 135.061 51.2602 133.052 51.2602C130.949 51.2602 128.986 50.8862 127.164 50.1382C125.389 49.3902 123.847 48.2916 122.538 46.8424C121.23 45.3932 120.202 43.5933 119.454 41.4429C118.707 39.2924 118.333 36.8147 118.333 34.0098C118.333 31.4854 118.707 29.1713 119.454 27.0676C120.202 24.9639 121.23 23.1641 122.538 21.6681C123.847 20.1721 125.389 19.0268 127.164 18.2321C128.986 17.3906 130.949 16.9698 133.052 16.9698C134.967 16.9698 136.65 17.2737 138.098 17.8814C139.593 18.4892 140.948 19.3307 142.163 20.4059V0H152.536V50.4888H142.163V47.3333ZM135.505 42.7051C137.794 42.7051 139.57 41.887 140.831 40.2508C142.093 38.6146 142.724 36.5576 142.724 34.0799C142.724 31.275 142.023 29.1479 140.621 27.6987C139.266 26.2495 137.537 25.5249 135.435 25.5249C133.145 25.5249 131.369 26.343 130.108 27.9792C128.893 29.5687 128.286 31.6022 128.286 34.0799C128.286 36.6044 128.916 38.6847 130.178 40.3209C131.44 41.9104 133.215 42.7051 135.505 42.7051Z" fill="#AF2626"/>
<path d="M176.37 42.7051C177.585 42.7051 178.637 42.4714 179.524 42.0039C180.459 41.5364 181.23 40.9286 181.837 40.1807C182.491 39.3859 182.959 38.4743 183.239 37.4459C183.566 36.3706 183.73 35.2487 183.73 34.0799C183.73 32.9112 183.566 31.8126 183.239 30.7841C182.959 29.7089 182.491 28.7973 181.837 28.0493C181.23 27.2546 180.459 26.6235 179.524 26.156C178.637 25.6885 177.585 25.4548 176.37 25.4548C175.155 25.4548 174.081 25.6885 173.146 26.156C172.258 26.6235 171.488 27.2546 170.833 28.0493C170.226 28.7973 169.759 29.7089 169.432 30.7841C169.104 31.8126 168.941 32.9112 168.941 34.0799C168.941 35.2487 169.104 36.3706 169.432 37.4459C169.759 38.4743 170.226 39.3859 170.833 40.1807C171.488 40.9286 172.258 41.5364 173.146 42.0039C174.081 42.4714 175.155 42.7051 176.37 42.7051ZM176.37 51.5406C173.707 51.5406 171.301 51.0965 169.151 50.2083C167.049 49.2733 165.226 48.0345 163.684 46.4918C162.189 44.9023 161.044 43.0557 160.25 40.952C159.456 38.8016 159.058 36.5109 159.058 34.0799C159.058 31.649 159.456 29.3817 160.25 27.278C161.044 25.1743 162.189 23.3277 163.684 21.7382C165.226 20.1488 167.049 18.9099 169.151 18.0217C171.301 17.0867 173.707 16.6192 176.37 16.6192C179.034 16.6192 181.417 17.0867 183.519 18.0217C185.669 18.9099 187.491 20.1488 188.986 21.7382C190.528 23.3277 191.696 25.1743 192.491 27.278C193.285 29.3817 193.682 31.649 193.682 34.0799C193.682 36.5109 193.285 38.8016 192.491 40.952C191.696 43.0557 190.528 44.9023 188.986 46.4918C187.491 48.0345 185.669 49.2733 183.519 50.2083C181.417 51.0965 179.034 51.5406 176.37 51.5406Z" fill="#AF2626"/>
<path d="M200.19 0H210.563V50.4888H200.19V0Z" fill="#AF2626"/>
<path d="M214.367 55.5377C215.208 55.8649 216.049 56.1688 216.89 56.4493C217.778 56.7765 218.76 56.9401 219.834 56.9401C221.47 56.9401 222.871 56.6363 224.04 56.0285C225.254 55.4676 226.259 54.2988 227.053 52.5224L228.105 50.2083L215.909 17.6711H226.563L233.011 36.7446L239.459 17.6711H249.692L236.025 53.6444C234.53 57.4778 232.567 60.4229 230.137 62.4799C227.708 64.5836 224.507 65.6354 220.535 65.6354C218.9 65.6354 217.311 65.4484 215.769 65.0745C214.274 64.7005 212.802 64.1862 211.353 63.5317L214.367 55.5377Z" fill="#AF2626"/>
<path d="M254.263 17.6711H264.636V21.6681C265.71 20.4059 267.042 19.2839 268.631 18.3022C270.266 17.3205 272.322 16.8296 274.799 16.8296C277.322 16.8296 279.471 17.3672 281.247 18.4424C283.069 19.4709 284.401 20.9435 285.242 22.8602C285.803 22.1122 286.433 21.3876 287.134 20.6864C287.835 19.9384 288.63 19.2839 289.517 18.7229C290.405 18.1619 291.41 17.7178 292.531 17.3906C293.653 17.0166 294.914 16.8296 296.316 16.8296C299.82 16.8296 302.577 17.8113 304.586 19.7748C306.642 21.6915 307.67 24.3094 307.67 27.6286V50.4888H297.297V31.1348C297.297 29.3116 296.807 27.9091 295.825 26.9274C294.891 25.9456 293.606 25.4548 291.97 25.4548C290.335 25.4548 288.957 26.0859 287.835 27.3481C286.714 28.6103 286.153 30.4569 286.153 32.8878V50.4888H275.78V31.1348C275.78 29.3116 275.289 27.9091 274.308 26.9274C273.374 25.9456 272.089 25.4548 270.453 25.4548C268.818 25.4548 267.439 26.0625 266.318 27.278C265.243 28.4934 264.682 30.2465 264.636 32.5372V50.4888H254.263V17.6711Z" fill="#AF2626"/>
<path d="M333.717 42.8454C336.007 42.8454 337.782 42.0039 339.044 40.3209C340.305 38.638 340.936 36.5576 340.936 34.0799C340.936 31.5555 340.282 29.4985 338.974 27.9091C337.712 26.2729 335.937 25.4548 333.647 25.4548C331.357 25.4548 329.582 26.2962 328.32 27.9792C327.059 29.6154 326.428 31.649 326.428 34.0799C326.428 36.9316 327.105 39.1054 328.46 40.6014C329.862 42.0974 331.614 42.8454 333.717 42.8454ZM349.767 26.8572C350.515 29.0077 350.889 31.4854 350.889 34.2903C350.889 36.8148 350.538 39.1522 349.838 41.3026C349.09 43.4063 348.062 45.2062 346.754 46.7021C345.445 48.1981 343.903 49.3668 342.128 50.2083C340.305 51.0498 338.32 51.4705 336.17 51.4705C334.254 51.4705 332.572 51.19 331.124 50.629C329.629 50.0213 328.274 49.1798 327.059 48.1046V63.1811L316.685 64.9342V17.8113H327.059V21.1071C328.274 19.8917 329.605 18.9099 331.054 18.1619C332.455 17.414 334.184 17.04 336.24 17.04C338.343 17.04 340.305 17.414 342.128 18.1619C343.903 18.9099 345.445 20.0085 346.754 21.4577C348.015 22.907 349.02 24.7068 349.767 26.8572Z" fill="#AF2626"/>
<path d="M362.598 12.5521C360.915 12.5521 359.467 11.9677 358.252 10.799C357.084 9.63027 356.5 8.18106 356.5 6.45135C356.5 4.67489 357.084 3.2023 358.252 2.03358C359.467 0.864854 360.915 0.280494 362.598 0.280494C364.28 0.280494 365.705 0.864854 366.873 2.03358C368.088 3.2023 368.695 4.67489 368.695 6.45135C368.695 8.18106 368.088 9.63027 366.873 10.799C365.705 11.9677 364.28 12.5521 362.598 12.5521ZM357.411 17.6711H367.784V50.4888H357.411V17.6711Z" fill="#AF2626"/>
<path d="M404.81 46.4216C404.156 46.9826 403.408 47.567 402.567 48.1747C401.773 48.7825 400.838 49.3435 399.764 49.8577C398.736 50.3252 397.568 50.7225 396.259 51.0498C394.951 51.377 393.479 51.5406 391.844 51.5406C389.18 51.5406 386.774 51.1199 384.625 50.2784C382.475 49.3902 380.629 48.1514 379.088 46.5619C377.546 44.9724 376.354 43.1025 375.513 40.952C374.719 38.8016 374.322 36.4174 374.322 33.7994C374.322 31.5555 374.695 29.4051 375.443 27.3481C376.237 25.2444 377.359 23.3978 378.807 21.8084C380.302 20.2189 382.101 18.9567 384.204 18.0217C386.353 17.0867 388.807 16.6192 391.563 16.6192C394.367 16.6192 396.68 17.04 398.502 17.8814C400.371 18.6762 401.983 19.541 403.338 20.476L398.853 27.7688C398.152 27.3948 397.287 26.9741 396.259 26.5066C395.231 25.9924 393.853 25.7353 392.124 25.7353C389.975 25.7353 388.129 26.4832 386.587 27.9792C385.092 29.4284 384.344 31.4153 384.344 33.9397C384.344 36.5576 385.115 38.638 386.657 40.1807C388.246 41.7234 390.185 42.4947 392.475 42.4947C394.25 42.4947 395.675 42.1909 396.75 41.5831C397.871 40.9287 398.899 40.2742 399.834 39.6197L404.81 46.4216Z" fill="#AF2626"/>
<path d="M410.809 40.1807C412.07 40.9754 413.589 41.7701 415.365 42.5649C417.187 43.3596 419.079 43.757 421.042 43.757C423.425 43.757 424.616 42.9856 424.616 41.4429C424.616 40.6482 424.266 40.0638 423.565 39.6898C422.911 39.2691 421.976 38.825 420.761 38.3575L417.327 37.0251C415.972 36.5576 414.757 36.0434 413.682 35.4824C412.654 34.8747 411.743 34.1734 410.949 33.3787C410.201 32.5372 409.617 31.6022 409.197 30.5738C408.823 29.4985 408.636 28.213 408.636 26.717C408.636 25.2678 408.916 23.9354 409.477 22.72C410.085 21.4577 410.926 20.3825 412 19.4943C413.075 18.6061 414.36 17.9048 415.855 17.3906C417.397 16.8763 419.103 16.6192 420.972 16.6192C423.682 16.6192 425.948 16.9932 427.77 17.7412C429.593 18.4892 431.251 19.3307 432.747 20.2656L429.452 26.7871C428.518 26.3196 427.303 25.782 425.808 25.1743C424.359 24.5665 422.934 24.2627 421.532 24.2627C420.504 24.2627 419.687 24.4964 419.079 24.9639C418.519 25.3846 418.238 25.9456 418.238 26.6469C418.238 27.4416 418.495 28.0493 419.009 28.4701C419.523 28.8441 420.388 29.2648 421.602 29.7323L424.897 30.9244C426.252 31.3919 427.513 31.8827 428.681 32.397C429.85 32.9112 430.854 33.5423 431.695 34.2903C432.583 34.9915 433.261 35.8564 433.728 36.8849C434.242 37.8666 434.499 39.0821 434.499 40.5313C434.499 42.074 434.218 43.5232 433.658 44.8789C433.097 46.1879 432.279 47.3566 431.205 48.3851C430.13 49.3668 428.775 50.1382 427.139 50.6992C425.551 51.2602 423.682 51.5406 421.532 51.5406C418.589 51.5406 415.902 51.0965 413.472 50.2083C411.042 49.2733 408.963 48.2682 407.234 47.193L410.809 40.1807Z" fill="#AF2626"/>
<path d="M519.378 18.7541C521.722 22.1647 522.606 30.5056 521.399 36.2934C521.138 38.2759 520.378 40.2802 519.086 42.3129C514.778 49.0873 504.722 55.8708 489.057 61.6619C457.926 73.171 406.626 80.0435 342.586 76.6172L342.582 76.6898C352.84 82.1675 363.56 83.0197 386.416 82.8005L373.565 82.9983C423.625 83.1188 464.24 76.6999 490.963 66.8208C506.909 60.9256 518.413 53.6161 523.724 45.2652C526.438 40.9978 527.566 36.3981 526.729 31.6648C525.932 27.1596 523.409 22.835 519.378 18.7541Z" fill="url(#paint0_linear_60_563)"/>
<defs>
<linearGradient id="paint0_linear_60_563" x1="342.292" y1="50.877" x2="527" y2="50.877" gradientUnits="userSpaceOnUse">
<stop stop-color="#FF0000"/>
<stop offset="0.22" stop-color="#FAFF00"/>
<stop offset="0.39" stop-color="#CCFF00"/>
<stop offset="0.545" stop-color="#00B0FB"/>
<stop offset="0.68" stop-color="#004BDD"/>
<stop offset="0.82" stop-color="#1D00CD"/>
<stop offset="1" stop-color="#8F00FF"/>
</linearGradient>
</defs>
</svg>
