<svg width="19" height="19" viewBox="0 0 19 19" fill="none" xmlns="http://www.w3.org/2000/svg">
<path fill-rule="evenodd" clip-rule="evenodd" d="M9.08593 14.2119L5.54801 16.0579C5.42295 16.1232 5.28213 16.1521 5.14146 16.1415C5.0008 16.1309 4.8659 16.0812 4.75202 15.998C4.63815 15.9147 4.54983 15.8013 4.49707 15.6704C4.4443 15.5396 4.42919 15.3966 4.45344 15.2577L5.13987 11.3268L2.29056 8.53202C2.18977 8.43321 2.11864 8.30816 2.08524 8.17102C2.05184 8.03387 2.0575 7.89012 2.10158 7.75603C2.14566 7.62193 2.22639 7.50286 2.33465 7.41228C2.4429 7.3217 2.57435 7.26323 2.71412 7.2435L6.66469 6.68176L8.44176 3.10882C8.50454 2.9824 8.60146 2.87608 8.72154 2.80189C8.84162 2.7277 8.98008 2.68861 9.12122 2.68905C9.26237 2.68948 9.40058 2.72942 9.52021 2.80434C9.63983 2.87926 9.7361 2.98617 9.7981 3.11297L11.5533 6.69673L15.5003 7.28342C15.6398 7.30411 15.7707 7.36341 15.8783 7.4546C15.9858 7.54579 16.0657 7.66524 16.109 7.79947C16.1522 7.93369 16.1571 8.07732 16.1229 8.21415C16.0888 8.35098 16.0171 8.47554 15.916 8.57376L13.0488 11.351L13.7112 15.286C13.7345 15.425 13.7184 15.5678 13.6649 15.6982C13.6114 15.8285 13.5225 15.9414 13.4082 16.0239C13.2939 16.1064 13.1589 16.1554 13.0183 16.1652C12.8777 16.175 12.7371 16.1453 12.6125 16.0795L9.08593 14.2119Z" fill="#FFD146"/>
</svg>
