<svg width="26" height="26" viewBox="0 0 26 26" fill="none" xmlns="http://www.w3.org/2000/svg">
<path d="M13 0.8125C6.26875 0.8125 0.8125 6.26875 0.8125 13C0.8125 19.7313 6.26875 25.1875 13 25.1875C19.7313 25.1875 25.1875 19.7313 25.1875 13C25.1875 6.26875 19.7313 0.8125 13 0.8125ZM14.6625 8.47875C14.783 8.45308 14.9074 8.4514 15.0285 8.47382C15.1496 8.49624 15.2652 8.54232 15.3685 8.60942C15.4718 8.67652 15.5609 8.76333 15.6306 8.86488C15.7004 8.96643 15.7495 9.08073 15.775 9.20125L15.9037 9.8125C15.9315 9.93372 15.935 10.0593 15.9138 10.1818C15.8926 10.3044 15.8472 10.4215 15.7803 10.5263C15.7134 10.6312 15.6263 10.7216 15.5241 10.7925C15.4219 10.8634 15.3066 10.9132 15.185 10.939C15.0633 10.9649 14.9378 10.9663 14.8156 10.9432C14.6934 10.9201 14.577 10.8728 14.4732 10.8043C14.3695 10.7357 14.2804 10.6472 14.2111 10.5439C14.1419 10.4406 14.0939 10.3245 14.07 10.2025L13.94 9.59C13.8885 9.34684 13.9357 9.09318 14.0712 8.8848C14.2067 8.67641 14.4194 8.53036 14.6625 8.47875ZM8.54875 9.77875C8.66924 9.75308 8.79361 9.7514 8.91475 9.77382C9.03589 9.79624 9.15143 9.84232 9.25475 9.90942C9.35807 9.97652 9.44715 10.0633 9.5169 10.1649C9.58665 10.2664 9.6357 10.3807 9.66125 10.5013L9.79 11.1125C9.81871 11.2341 9.82283 11.3602 9.80212 11.4834C9.78141 11.6066 9.73629 11.7244 9.6694 11.8299C9.60251 11.9354 9.51521 12.0265 9.41262 12.0978C9.31004 12.1691 9.19424 12.2192 9.07202 12.2451C8.94981 12.271 8.82365 12.2722 8.70096 12.2487C8.57827 12.2251 8.46152 12.1773 8.35757 12.108C8.25362 12.0387 8.16458 11.9493 8.09566 11.8451C8.02674 11.7409 7.97934 11.624 7.95625 11.5012L7.82625 10.89C7.80058 10.7695 7.7989 10.6451 7.82132 10.524C7.84374 10.4029 7.88982 10.2873 7.95692 10.184C8.02402 10.0807 8.11083 9.9916 8.21238 9.92185C8.31393 9.8521 8.42823 9.80305 8.54875 9.7775M18.9575 14.2213C19.1303 14.3998 19.2251 14.6397 19.2211 14.8881C19.2171 15.1366 19.1147 15.3733 18.9363 15.5462C18.7219 15.7545 18.4984 15.953 18.2662 16.1412L18.5387 16.6975C18.8548 17.3654 18.8954 18.1309 18.6516 18.8284C18.4078 19.526 17.8993 20.0995 17.236 20.4252C16.5728 20.7508 15.808 20.8024 15.107 20.5687C14.406 20.335 13.8252 19.8348 13.49 19.1763L13.1488 18.48C11.5757 18.7864 9.95493 18.7493 8.3975 18.3713C8.15949 18.308 7.95592 18.1536 7.8308 17.9415C7.70567 17.7294 7.66903 17.4766 7.7288 17.2377C7.78857 16.9988 7.93994 16.793 8.15021 16.6648C8.36047 16.5365 8.61274 16.4962 8.8525 16.5525C10.265 16.9062 11.8888 16.9112 13.535 16.47C15.1813 16.0288 16.585 15.2137 17.6325 14.2C17.8111 14.0272 18.051 13.9324 18.2994 13.9364C18.5478 13.9404 18.7846 14.0428 18.9575 14.2213Z" fill="#D24949"/>
</svg>
