<svg width="23" height="23" viewBox="0 0 23 23" fill="none" xmlns="http://www.w3.org/2000/svg">
<path d="M18.25 13.75C19.1304 13.75 19.9915 14.0083 20.7266 14.4928C21.4617 14.9774 22.0385 15.6669 22.3856 16.4761C22.7327 17.2852 22.8348 18.1784 22.6792 19.045C22.5237 19.9116 22.1174 20.7135 21.5106 21.3514C20.9038 21.9893 20.1232 22.4353 19.2654 22.6339C18.4077 22.8326 17.5105 22.7753 16.6851 22.4691C15.8596 22.1629 15.1421 21.6213 14.6214 20.9114C14.1007 20.2014 13.7996 19.3543 13.7556 18.475L13.75 18.25L13.7556 18.025C13.8134 16.8719 14.3121 15.7851 15.1486 14.9894C15.9851 14.1937 17.0955 13.75 18.25 13.75ZM16.7954 0.579625C16.9891 0.773342 17.1054 1.03108 17.1226 1.30448C17.1398 1.57789 17.0567 1.84817 16.8888 2.06462L16.7954 2.17037L15.3407 3.625H19.375C20.2359 3.62495 21.0642 3.95387 21.6905 4.54444C22.3169 5.13502 22.6939 5.94262 22.7444 6.802L22.75 7V10.375C22.7497 10.6617 22.6399 10.9375 22.443 11.146C22.2462 11.3545 21.9772 11.48 21.6909 11.4968C21.4047 11.5136 21.1228 11.4205 20.9029 11.2365C20.6831 11.0524 20.5417 10.7914 20.5079 10.5066L20.5 10.375V7C20.5 6.72445 20.3988 6.4585 20.2157 6.25258C20.0326 6.04667 19.7803 5.91511 19.5066 5.88287L19.375 5.875H15.3419L16.7954 7.32963C16.9971 7.53208 17.1143 7.80374 17.123 8.08943C17.1317 8.37512 17.0314 8.65343 16.8423 8.86781C16.6533 9.0822 16.3898 9.21659 16.1052 9.2437C15.8207 9.2708 15.5365 9.18859 15.3104 9.01375L15.2046 8.92037L11.8296 5.54537C11.7012 5.41987 11.6054 5.2649 11.5505 5.09394C11.4956 4.92297 11.4833 4.74118 11.5146 4.56437L11.5551 4.40013L11.6001 4.28312C11.6654 4.13987 11.7572 4.01462 11.8757 3.90737L15.2046 0.579625C15.4156 0.36872 15.7017 0.25024 16 0.25024C16.2983 0.25024 16.5844 0.36872 16.7954 0.579625ZM1.375 11.5C1.65055 11.5 1.9165 11.6012 2.12242 11.7843C2.32833 11.9674 2.45989 12.2197 2.49213 12.4934L2.5 12.625V16C2.50004 16.2756 2.6012 16.5415 2.7843 16.7474C2.96741 16.9533 3.21972 17.0849 3.49337 17.1171L3.625 17.125H7.65812L6.20463 15.6704C6.01093 15.4767 5.89457 15.2189 5.87737 14.9455C5.86018 14.6721 5.94334 14.4018 6.11125 14.1854L6.20463 14.0796C6.39834 13.8859 6.65608 13.7696 6.92948 13.7524C7.20289 13.7352 7.47317 13.8183 7.68962 13.9862L7.79537 14.0796L11.1704 17.4546C11.2988 17.5801 11.3946 17.7351 11.4495 17.9061C11.5044 18.077 11.5167 18.2588 11.4854 18.4356L11.4449 18.5999L11.3999 18.7169C11.3352 18.86 11.2413 18.988 11.1243 19.0926L7.79537 22.4204C7.59292 22.6221 7.32126 22.7393 7.03557 22.748C6.74988 22.7567 6.47157 22.6564 6.25719 22.4673C6.0428 22.2783 5.90841 22.0148 5.8813 21.7302C5.8542 21.4457 5.93641 21.1615 6.11125 20.9354L6.20463 20.8296L7.657 19.375H3.625C2.76414 19.375 1.9358 19.0461 1.30946 18.4556C0.683117 17.865 0.306129 17.0574 0.255625 16.198L0.25 16V12.625C0.25 12.3266 0.368526 12.0405 0.579505 11.8295C0.790483 11.6185 1.07663 11.5 1.375 11.5ZM4.75 0.25C5.63043 0.250001 6.49153 0.508274 7.22662 0.99283C7.96172 1.47739 8.53852 2.16694 8.8856 2.97607C9.23267 3.78521 9.33476 4.67839 9.17922 5.54497C9.02368 6.41156 8.61735 7.21348 8.01056 7.85141C7.40376 8.48935 6.62316 8.93526 5.76543 9.13394C4.90771 9.33261 4.01054 9.2753 3.18507 8.96912C2.35959 8.66294 1.64206 8.12133 1.12135 7.41138C0.600651 6.70143 0.299647 5.85433 0.255625 4.975L0.25 4.75L0.255625 4.525C0.313351 3.37192 0.812055 2.28514 1.64859 1.48944C2.48512 0.69374 3.59548 0.249999 4.75 0.25Z" fill="#D24949"/>
</svg>
