<svg width="38" height="37" viewBox="0 0 38 37" fill="none" xmlns="http://www.w3.org/2000/svg">
<g clip-path="url(#clip0_1446_5041)">
<path fill-rule="evenodd" clip-rule="evenodd" d="M16.3021 25.4445L10.13 26.0568C9.9118 26.0784 9.69192 26.0386 9.49519 25.9418C9.29845 25.845 9.13272 25.6951 9.01673 25.5091C8.90074 25.323 8.83912 25.1082 8.83882 24.889C8.83853 24.6697 8.89958 24.4548 9.01508 24.2684L12.2828 18.9971L9.79301 13.3154C9.70489 13.1145 9.67478 12.8929 9.70608 12.6758C9.73738 12.4586 9.82884 12.2546 9.97011 12.0868C10.1114 11.9189 10.2968 11.794 10.5054 11.7261C10.714 11.6581 10.9375 11.65 11.1505 11.7025L17.1735 13.1816L21.8068 9.05841C21.9706 8.91247 22.172 8.81529 22.3881 8.77788C22.6043 8.74048 22.8266 8.76433 23.0299 8.84674C23.2332 8.92915 23.4094 9.06684 23.5385 9.24421C23.6677 9.42157 23.7445 9.63154 23.7605 9.85035L24.2151 16.0359L29.5676 19.1691C29.7568 19.2798 29.9112 19.4412 30.0135 19.635C30.1158 19.8289 30.1618 20.0475 30.1464 20.2661C30.131 20.4847 30.0547 20.6947 29.9262 20.8722C29.7978 21.0498 29.6222 21.1879 29.4194 21.2709L23.6751 23.6149L22.3502 29.6738C22.3032 29.8877 22.1974 30.0843 22.0446 30.2413C21.8918 30.3984 21.6982 30.5095 21.4856 30.5623C21.273 30.6152 21.0499 30.6075 20.8414 30.5402C20.6329 30.4729 20.4474 30.3487 20.3058 30.1815L16.3021 25.4445Z" fill="#FFD146"/>
</g>
<defs>
<clipPath id="clip0_1446_5041">
<rect width="28.2021" height="28.2021" fill="white" transform="translate(11.3994) rotate(22.0651)"/>
</clipPath>
</defs>
</svg>
