<svg width="28" height="24" viewBox="0 0 28 24" fill="none" xmlns="http://www.w3.org/2000/svg">
<path d="M9.4925 0.609023C9.4567 0.413294 9.34461 0.239804 9.18089 0.126719C9.01717 0.0136349 8.81523 -0.0297807 8.6195 0.00602352C8.42377 0.0418277 8.25028 0.153919 8.1372 0.317638C8.02411 0.481358 7.9807 0.683294 8.0165 0.879024L8.03 0.948024C5.4365 1.80752 3.908 3.18302 3.0395 4.71752C2.192 6.21752 2.024 7.79252 2.0045 9.00002H2.0015V9.00602L0.996503 10.263C0.802586 10.5056 0.660979 10.7856 0.580594 11.0856C0.500209 11.3856 0.482787 11.6989 0.529425 12.0059C0.576063 12.313 0.68575 12.607 0.851583 12.8696C1.01742 13.1321 1.23581 13.3575 1.493 13.5315L14.4755 22.3215C16.0888 23.4147 17.9927 23.9994 19.9415 24H24.1265C24.6106 24.0001 25.0889 23.896 25.5292 23.6948C25.9695 23.4937 26.3614 23.2002 26.6782 22.8342C26.9951 22.4683 27.2295 22.0385 27.3656 21.574C27.5017 21.1095 27.5363 20.6211 27.467 20.142C27.227 18.4965 25.8365 17.316 24.3965 16.86C23.483 16.569 22.6265 16.0965 22.1255 15.3525L17.6 7.56752L17.87 7.52552C17.9684 7.51055 18.0627 7.47617 18.1477 7.42436C18.2326 7.37256 18.3064 7.30438 18.3647 7.22379C18.423 7.14319 18.4648 7.0518 18.4874 6.95493C18.5101 6.85806 18.5133 6.75765 18.4967 6.65955C18.4802 6.56144 18.4444 6.4676 18.3912 6.3835C18.3381 6.29939 18.2688 6.22669 18.1873 6.16964C18.1057 6.11259 18.0137 6.07232 17.9165 6.05119C17.8193 6.03005 17.7188 6.02846 17.621 6.04652C17.193 6.11752 16.769 6.15202 16.349 6.15002C13.244 6.13352 10.502 4.14452 9.6545 1.28702C9.58741 1.06435 9.53332 0.837972 9.4925 0.609023ZM6.0065 3.61202L9.299 9.31352C9.49803 9.65786 9.55216 10.0671 9.44949 10.4514C9.34682 10.8356 9.09576 11.1634 8.7515 11.3625L7.442 12.12L3.5015 9.46052V9.27002C3.5015 8.12102 3.6245 6.73202 4.346 5.45552C4.706 4.81652 5.2325 4.18052 6.008 3.61052M9.2495 13.338L13.8185 10.698C13.9892 10.5996 14.1776 10.5358 14.3729 10.5102C14.5683 10.4846 14.7668 10.4977 14.957 10.5488C15.1473 10.5999 15.3257 10.688 15.4819 10.8081C15.6381 10.9282 15.7691 11.0778 15.8675 11.2485L16.772 12.8145C16.9709 13.159 17.0248 13.5685 16.9219 13.9527C16.8189 14.337 16.5675 14.6646 16.223 14.8635L13.685 16.329L9.2495 13.338ZM19.988 21H25.964C25.79 21.855 25.034 22.5 24.1265 22.5H19.9415C18.2923 22.5 16.681 22.0058 15.3155 21.081L2.3345 12.2895C2.24888 12.2315 2.1762 12.1563 2.12102 12.0688C2.06583 11.9813 2.02935 11.8834 2.01385 11.7811C1.99835 11.6788 2.00418 11.5745 2.03097 11.4745C2.05776 11.3746 2.10492 11.2813 2.1695 11.2005L2.5985 10.6605L16.2125 19.845C17.3278 20.5977 18.6425 20.9999 19.988 21Z" fill="#D24949"/>
</svg>
