<svg width="29" height="29" viewBox="0 0 29 29" fill="none" xmlns="http://www.w3.org/2000/svg">
<g clip-path="url(#clip0_1446_5043)">
<path fill-rule="evenodd" clip-rule="evenodd" d="M10.9959 18.7128L6.81714 17.5957C6.66943 17.5562 6.5357 17.4762 6.43108 17.3647C6.32647 17.2532 6.25514 17.1146 6.22516 16.9647C6.19518 16.8148 6.20774 16.6594 6.26143 16.5163C6.31511 16.3731 6.40778 16.2478 6.52896 16.1545L9.95706 13.5172L9.72827 9.19712C9.72013 9.04434 9.75493 8.89234 9.82871 8.75831C9.9025 8.62428 10.0123 8.51359 10.1458 8.43876C10.2792 8.36392 10.431 8.32794 10.5838 8.33489C10.7366 8.34183 10.8845 8.39143 11.0106 8.47805L14.5781 10.9235L18.6153 9.37101C18.7581 9.31601 18.9134 9.30208 19.0636 9.33078C19.2139 9.35949 19.3532 9.42969 19.4656 9.53344C19.5781 9.63719 19.6592 9.77035 19.6999 9.91784C19.7406 10.0653 19.7391 10.2213 19.6958 10.368L18.4725 14.5168L21.1959 17.877C21.2921 17.9957 21.3533 18.139 21.3724 18.2907C21.3915 18.4423 21.3679 18.5963 21.3041 18.7352C21.2403 18.8741 21.1389 18.9924 21.0114 19.0767C20.8839 19.161 20.7354 19.208 20.5826 19.2123L16.2576 19.3306L13.9039 22.9594C13.8207 23.0875 13.7033 23.1898 13.565 23.2547C13.4267 23.3197 13.2731 23.3446 13.1213 23.3269C12.9696 23.3091 12.8258 23.2492 12.7063 23.1541C12.5868 23.0589 12.4962 22.9323 12.4449 22.7884L10.9959 18.7128Z" fill="#FFD146"/>
</g>
<defs>
<clipPath id="clip0_1446_5043">
<rect width="19.6679" height="19.6679" fill="white" transform="translate(14.0488 0.901611) rotate(42.6975)"/>
</clipPath>
</defs>
</svg>
