<svg width="28" height="41" viewBox="0 0 28 41" fill="none" xmlns="http://www.w3.org/2000/svg">
<path d="M28 15.0008C28.0031 12.3166 27.2346 9.68801 25.7858 7.4283C24.3371 5.16859 22.2693 3.373 19.8287 2.25545C17.3882 1.1379 14.6779 0.745507 12.0206 1.12502C9.36333 1.50453 6.87117 2.63995 4.84105 4.39601C2.81094 6.15206 1.32844 8.45471 0.570188 11.0296C-0.188062 13.6045 -0.190098 16.3431 0.564323 18.9192C1.31874 21.4952 2.79782 23.8001 4.82532 25.5591C6.85283 27.3182 9.34329 28.4573 12 28.8408V33.0008H9.99999C9.46956 33.0008 8.96085 33.2115 8.58578 33.5866C8.2107 33.9616 7.99999 34.4704 7.99999 35.0008C7.99999 35.5312 8.2107 36.0399 8.58578 36.415C8.96085 36.7901 9.46956 37.0008 9.99999 37.0008H12V39.0008C12 39.5312 12.2107 40.0399 12.5858 40.415C12.9608 40.7901 13.4696 41.0008 14 41.0008C14.5304 41.0008 15.0391 40.7901 15.4142 40.415C15.7893 40.0399 16 39.5312 16 39.0008V37.0008H18C18.5304 37.0008 19.0391 36.7901 19.4142 36.415C19.7893 36.0399 20 35.5312 20 35.0008C20 34.4704 19.7893 33.9616 19.4142 33.5866C19.0391 33.2115 18.5304 33.0008 18 33.0008H16V28.8408C19.3292 28.3603 22.3741 26.6972 24.5776 24.1557C26.7812 21.6143 27.996 18.3645 28 15.0008ZM14 25.0008C12.0222 25.0008 10.0888 24.4143 8.44429 23.3155C6.7998 22.2167 5.51807 20.6549 4.76119 18.8276C4.00432 17.0004 3.80628 14.9897 4.19214 13.0499C4.57799 11.1101 5.5304 9.32825 6.92892 7.92972C8.32745 6.5312 10.1093 5.57879 12.0491 5.19294C13.9889 4.80708 15.9996 5.00512 17.8268 5.76199C19.6541 6.51887 21.2159 7.80059 22.3147 9.44509C23.4135 11.0896 24 13.023 24 15.0008C24 16.314 23.7413 17.6144 23.2388 18.8276C22.7362 20.0409 21.9996 21.1433 21.0711 22.0719C20.1425 23.0004 19.0401 23.737 17.8268 24.2396C16.6136 24.7421 15.3132 25.0008 14 25.0008Z" fill="#444444"/>
</svg>
