<svg width="34" height="64" viewBox="0 0 34 64" fill="none" xmlns="http://www.w3.org/2000/svg">
<path d="M16.9559 9.67981C18.9361 9.74938 20.6243 7.27749 20.6243 4.30474C20.6196 1.67518 19.2979 0.0473503 17.1228 0.00097351C14.9477 -0.0454033 13.4683 1.56851 13.3802 4.13778C13.2782 6.87402 15.0405 9.61025 16.9559 9.67981Z" fill="#444444"/>
<path d="M33.9577 35.6189C33.9577 35.5493 33.2388 31.816 32.8864 30.0212C32.1269 25.8544 31.081 21.7449 29.7559 17.722C28.1791 13.1771 23.56 10.6681 17.4892 10.6681H16.9559H16.4226C10.3519 10.6449 5.75592 13.1632 4.15592 17.7081C2.83023 21.7355 1.78426 25.8497 1.02548 30.0212C0.821422 31.0739 0.380843 33.3603 0.0469295 35.118C-0.180317 36.3145 0.974466 37.3904 2.49099 37.3904C3.72925 37.3904 4.782 36.6531 4.93968 35.6652L6.2707 27.3174C6.702 24.4931 7.78722 21.7012 8.08867 18.8722C8.08867 18.8026 8.39012 18.7516 9.17852 18.4548C8.63128 21.5481 8.02838 24.3261 7.68983 27.1273C7.52057 28.8747 7.52057 30.6343 7.68983 32.3818C7.77331 33.5783 8.26026 34.7562 8.35302 35.9481C9.03939 44.5742 9.59128 53.2096 10.44 61.8218C10.5487 62.493 10.9146 63.0954 11.46 63.5014C12.0054 63.9075 12.6875 64.0852 13.3617 63.9968H13.3895C14.1296 63.9315 14.8179 63.5898 15.3173 63.0397C15.8166 62.4897 16.0904 61.7716 16.084 61.0287V36.4768C16.0783 36.2944 16.1392 36.1162 16.2552 35.9754C16.3713 35.8346 16.5346 35.7408 16.7148 35.7116C16.8188 35.6941 16.9254 35.6995 17.0272 35.7273C17.1289 35.7551 17.2234 35.8046 17.3042 35.8726C17.3849 35.9405 17.4499 36.0251 17.4946 36.1207C17.5394 36.2162 17.5629 36.3203 17.5635 36.4258V60.7551C17.5598 61.5656 17.8595 62.3481 18.4036 62.9488C18.9477 63.5496 19.6968 63.9251 20.5037 64.0015H20.5316C21.2058 64.0898 21.8878 63.9121 22.4333 63.5061C22.9787 63.1 23.3445 62.4976 23.4533 61.8264C24.3066 53.2142 24.8446 44.5789 25.5403 35.9528C25.633 34.7609 26.12 33.5829 26.2081 32.3864C26.3727 30.6388 26.3727 28.8795 26.2081 27.1319C25.8649 24.3493 25.2806 21.5667 24.7194 18.4594C25.5078 18.7562 25.8 18.8073 25.8092 18.8768C26.1061 21.7058 27.2006 24.4977 27.6272 27.322L28.8794 35.1736C29.0835 36.4444 30.4377 37.3997 32.0423 37.3997C33.2342 37.3904 34.1385 36.551 33.9577 35.6189Z" fill="#444444"/>
</svg>
