<svg width="22" height="64" viewBox="0 0 22 64" fill="none" xmlns="http://www.w3.org/2000/svg">
<g clip-path="url(#clip0_137_1584)">
<path d="M18.1294 15.9196C14.2868 12.8197 7.73182 12.8151 3.80159 15.8642C2.90758 16.5775 2.2948 17.5841 2.07174 18.7058C1.2737 24.5642 0.637114 30.4457 0.0512695 36.3318C0.0512695 36.3872 0.0512695 36.4426 0.0512695 36.4979C0.125077 37.6142 1.66119 37.9095 2.24242 36.9592C2.32447 36.8304 2.38376 36.6884 2.41771 36.5394C2.95742 33.9054 3.28033 31.2299 3.66782 28.6006C4.14756 25.4315 4.66421 22.2854 5.12551 19.1394H6.0481C6.46326 22.004 7.13214 24.8687 7.2244 27.7472C7.31204 30.3996 6.54168 33.0705 6.56475 35.7322C6.62933 43.2651 6.90611 50.7934 7.11369 58.3356C7.08562 59.8783 7.17971 61.4207 7.39508 62.9485C7.41792 63.0589 7.45842 63.1648 7.51501 63.2622C7.6536 63.4874 7.84538 63.6752 8.0735 63.8089C8.30163 63.9426 8.55911 64.0183 8.82332 64.0292C9.08753 64.0402 9.35038 63.986 9.58878 63.8716C9.82717 63.7572 10.0338 63.5859 10.1905 63.3729C10.2923 63.2464 10.3819 63.1105 10.4581 62.967C10.7118 62.5057 10.5273 61.763 10.5273 61.1495C10.5273 53.7688 10.5273 46.3881 10.5273 39.0074C10.5273 38.2508 10.6288 37.4943 10.6841 36.7378H11.3391C11.3807 37.522 11.4683 38.3062 11.4683 39.0904C11.4683 46.4711 11.4683 53.8518 11.4683 61.2325C11.4683 61.7722 11.3069 62.395 11.5191 62.8286C11.6585 63.0815 11.8584 63.2959 12.101 63.4526C12.3435 63.6094 12.6211 63.7036 12.9089 63.7269C13.1968 63.7502 13.4859 63.7019 13.7505 63.5862C14.0151 63.4705 14.2469 63.291 14.4252 63.0639L14.6189 62.8194C14.8081 62.561 14.6835 62.0721 14.6928 61.6846C14.9465 53.3121 15.274 44.9396 15.4031 36.5625C15.3938 33.7291 15.1532 30.9012 14.6835 28.107C14.1946 24.8779 14.8588 21.9902 16.132 19.1486L16.7455 19.2224C16.8793 19.9467 17.0361 20.6663 17.1468 21.3951C17.9126 26.4694 18.6322 31.5759 19.4856 36.6455C19.5085 36.7703 19.5522 36.8904 19.6148 37.0007C19.7287 37.2201 19.9049 37.401 20.1213 37.5206C20.3376 37.6403 20.5845 37.6933 20.8309 37.6731C21.0773 37.6529 21.3122 37.5603 21.5062 37.4071C21.7002 37.2538 21.8446 37.0466 21.9212 36.8116C21.9524 36.7133 21.9634 36.6098 21.9535 36.5071C21.3446 30.6579 20.6665 24.8087 19.827 18.9779C19.604 17.8027 19.0088 16.7304 18.1294 15.9196Z" fill="#444444"/>
<path d="M10.9794 10.417C12.5478 10.417 14.3653 7.64923 14.3884 5.27817C14.416 2.63034 13.1336 0.978911 11.0348 0.942007C8.93586 0.905104 7.50585 2.57038 7.47356 5.09366C7.43204 7.53852 9.36025 10.4401 10.9794 10.417Z" fill="#444444"/>
<path d="M11.0071 11.4035C13.2582 11.3528 15.3156 8.40048 15.3294 5.19909C15.3432 1.99771 13.8164 0.0787246 11.1224 0.000304499C8.35463 -0.0781156 6.53713 1.89161 6.48178 5.10222C6.43103 8.2298 8.74673 11.4542 11.0071 11.4035ZM11.0348 0.922893C13.1336 0.959797 14.416 2.61123 14.3884 5.25906C14.3884 7.63473 12.5432 10.3748 10.9794 10.3979C9.41561 10.4209 7.44127 7.5194 7.47356 5.093C7.50585 2.56972 8.92202 0.922893 11.0348 0.922893Z" fill="#444444"/>
</g>
<defs>
<clipPath id="clip0_137_1584">
<rect width="21.8976" height="64" fill="white" transform="translate(0.0512695)"/>
</clipPath>
</defs>
</svg>
