<svg width="34" height="34" viewBox="0 0 34 34" fill="none" xmlns="http://www.w3.org/2000/svg">
<path d="M33.84 1.24C33.6371 0.751301 33.2487 0.36295 32.76 0.16C32.5196 0.0575179 32.2614 0.00315997 32 0H24C23.4696 0 22.9609 0.210714 22.5858 0.585786C22.2107 0.960859 22 1.46957 22 2C22 2.53043 22.2107 3.03914 22.5858 3.41421C22.9609 3.78929 23.4696 4 24 4H27.18L22.38 8.8C19.5459 6.67889 16.0134 5.71019 12.4937 6.08891C8.97402 6.46763 5.72848 8.16565 3.41043 10.8411C1.09238 13.5166 -0.126057 16.9709 0.000398302 20.5087C0.126853 24.0464 1.58881 27.4049 4.09197 29.9081C6.59513 32.4112 9.95362 33.8732 13.4914 33.9996C17.0291 34.1261 20.4834 32.9076 23.1589 30.5896C25.8344 28.2716 27.5324 25.026 27.9111 21.5063C28.2898 17.9866 27.3211 14.4542 25.2 11.62L30 6.82V10C30 10.5304 30.2107 11.0391 30.5858 11.4142C30.9609 11.7893 31.4696 12 32 12C32.5305 12 33.0392 11.7893 33.4142 11.4142C33.7893 11.0391 34 10.5304 34 10V2C33.9969 1.73865 33.9425 1.48044 33.84 1.24ZM21 27C19.6096 28.4185 17.8282 29.3908 15.883 29.7929C13.9378 30.1951 11.9169 30.0088 10.078 29.2578C8.2391 28.5069 6.66549 27.2253 5.55782 25.5765C4.45015 23.9277 3.8586 21.9863 3.8586 20C3.8586 18.0137 4.45015 16.0723 5.55782 14.4235C6.66549 12.7747 8.2391 11.4931 10.078 10.7422C11.9169 9.99124 13.9378 9.80494 15.883 10.2071C17.8282 10.6092 19.6096 11.5815 21 13C22.8323 14.8693 23.8586 17.3825 23.8586 20C23.8586 22.6175 22.8323 25.1307 21 27Z" fill="#444444"/>
</svg>
