<svg width="28" height="64" viewBox="0 0 28 64" fill="none" xmlns="http://www.w3.org/2000/svg">
<g clip-path="url(#clip0_137_1595)">
<path d="M13.8074 9.67982C15.7506 9.7401 17.3923 7.2775 17.3923 4.30474C17.3923 1.67518 16.0984 0.0473503 13.9697 0.00097351C11.841 -0.0454033 10.408 1.56851 10.3106 4.13778C10.2039 6.87402 11.9338 9.61025 13.8074 9.67982Z" fill="#D24949"/>
<path d="M27.2891 35.6187C27.2891 35.5491 26.7233 31.8158 26.4451 30.021C25.8578 25.879 25.0403 21.7729 23.9964 17.7219C22.7581 13.177 19.1407 10.668 14.3871 10.668H13.9651H13.5477C8.79406 10.668 5.17204 13.177 3.94305 17.7219C2.89824 21.7733 2.07767 25.8792 1.48508 30.021C1.3274 31.0738 0.979571 33.3601 0.719861 35.1178C0.675216 35.396 0.690999 35.6805 0.766137 35.952C0.841274 36.2235 0.974004 36.4756 1.1553 36.6912C1.33659 36.9068 1.5622 37.0809 1.81677 37.2015C2.07134 37.3221 2.34891 37.3865 2.63059 37.3903C3.10603 37.3866 3.56372 37.2092 3.91738 36.8914C4.27105 36.5736 4.49626 36.1374 4.55059 35.6651L5.59406 27.3172C5.92798 24.4929 6.78131 21.701 7.01783 18.872C7.01783 18.8025 7.25435 18.7514 7.87117 18.4546C7.4445 21.548 6.97146 24.3259 6.70247 27.1271C6.57264 28.8762 6.57264 30.6325 6.70247 32.3816C6.7674 33.5781 7.16624 34.7561 7.22189 35.948C7.75986 44.5741 8.19117 53.2094 8.85435 61.8216C8.91928 62.661 9.59638 64.1404 11.1454 63.9967C11.2867 63.9862 11.4265 63.9613 11.5628 63.9225C12.1187 63.7608 12.606 63.4207 12.9496 62.9548C13.2932 62.4888 13.474 61.9228 13.4642 61.3439V36.3468C13.4642 36.2238 13.5131 36.1058 13.6 36.0189C13.687 35.9319 13.805 35.883 13.928 35.883C14.0074 35.8841 14.0847 35.9083 14.1506 35.9526C14.2155 35.9931 14.2693 36.049 14.3073 36.1154C14.3454 36.1817 14.3664 36.2564 14.3686 36.3329C14.3686 36.3329 14.3083 60.9126 14.3686 61.7984C14.4845 63.3381 15.9361 63.9132 16.7338 63.9781C18.2874 64.108 18.9599 62.6425 19.0248 61.803C19.7112 53.2048 20.1749 44.5694 20.6897 35.9433C20.7639 34.7514 21.1535 33.5735 21.2091 32.377C21.3413 30.6279 21.3413 28.8715 21.2091 27.1225C20.9448 24.3399 20.4717 21.5572 20.0451 18.45C20.6619 18.7468 20.8938 18.7978 20.8984 18.8674C21.1349 21.6964 21.9836 24.4883 22.3222 27.3126L23.3054 35.1642C23.3765 35.7731 23.6672 36.3352 24.1232 36.745C24.5791 37.1548 25.1689 37.3843 25.7819 37.3903C26.0029 37.3897 26.2212 37.3412 26.4217 37.2482C26.6222 37.1552 26.8002 37.0199 26.9435 36.8516C27.0867 36.6832 27.1918 36.4858 27.2514 36.273C27.3111 36.0602 27.324 35.837 27.2891 35.6187Z" fill="#D24949"/>
</g>
<defs>
<clipPath id="clip0_137_1595">
<rect width="26.6064" height="64" fill="white" transform="translate(0.696777)"/>
</clipPath>
</defs>
</svg>
