<?xml version="1.0" standalone="no"?>
<!DOCTYPE svg PUBLIC "-//W3C//DTD SVG 20010904//EN"
 "http://www.w3.org/TR/2001/REC-SVG-20010904/DTD/svg10.dtd">
<svg version="1.0" xmlns="http://www.w3.org/2000/svg"
 width="512.000000pt" height="512.000000pt" viewBox="0 0 512.000000 512.000000"
 preserveAspectRatio="xMidYMid meet">

<g transform="translate(0.000000,512.000000) scale(0.100000,-0.100000)"
fill="#000000" stroke="none">
<path d="M3269 5067 c-172 -59 -281 -210 -281 -392 0 -226 164 -401 388 -413
383 -20 589 434 319 704 -114 115 -275 153 -426 101z"/>
<path d="M1883 4633 c-18 -10 -137 -103 -265 -208 -504 -413 -529 -434 -549
-478 -76 -169 115 -323 266 -215 18 13 167 133 331 268 164 135 306 251 316
258 15 11 37 7 140 -23 68 -20 126 -40 131 -44 4 -4 -124 -129 -285 -278 -348
-322 -356 -331 -403 -408 -59 -99 -72 -159 -116 -558 -23 -205 -45 -376 -49
-380 -4 -4 -204 -26 -446 -48 -241 -22 -452 -45 -467 -51 -38 -15 -57 -45 -63
-104 -7 -62 12 -121 49 -148 25 -19 62 -22 597 -47 606 -29 624 -28 692 17 62
40 83 85 154 334 37 129 71 239 75 244 9 11 1106 -35 1931 -80 712 -40 699
-40 734 14 10 15 19 54 22 91 3 57 1 70 -17 93 -12 15 -39 32 -59 38 -111 31
-1155 173 -1657 225 -297 30 -546 57 -553 58 -7 1 130 130 305 287 l318 285
375 5 375 5 185 92 c102 50 295 144 430 210 260 126 289 147 310 221 14 51 12
71 -9 117 -34 75 -123 125 -194 109 -18 -4 -207 -92 -421 -195 l-389 -189
-275 0 -275 0 -118 114 c-64 63 -136 124 -160 136 -65 34 -835 250 -888 250
-26 0 -61 -8 -78 -17z"/>
<path d="M2580 1396 l0 -565 38 -3 37 -3 3 -322 2 -323 -897 -2 -898 -3 -3
-72 -3 -73 971 0 970 0 0 400 0 400 35 0 35 0 0 565 0 565 -145 0 -145 0 0
-564z"/>
</g>
</svg>
