<?xml version="1.0" standalone="no"?>
<!DOCTYPE svg PUBLIC "-//W3C//DTD SVG 20010904//EN"
 "http://www.w3.org/TR/2001/REC-SVG-20010904/DTD/svg10.dtd">
<svg version="1.0" xmlns="http://www.w3.org/2000/svg"
 width="512.000000pt" height="512.000000pt" viewBox="0 0 512.000000 512.000000"
 preserveAspectRatio="xMidYMid meet">

<g transform="translate(0.000000,512.000000) scale(0.100000,-0.100000)"
fill="#000000" stroke="none">
<path d="M1090 5039 c-109 -12 -194 -53 -276 -136 -150 -149 -178 -383 -69
-569 123 -211 415 -287 629 -164 267 152 317 519 101 735 -103 102 -240 150
-385 134z"/>
<path d="M893 3969 c-55 -7 -123 -41 -160 -81 -42 -44 -72 -135 -243 -734
l-172 -601 16 -35 c9 -19 27 -40 39 -47 12 -6 258 -103 546 -216 289 -113 535
-215 547 -226 13 -12 30 -36 38 -53 8 -17 56 -270 106 -561 50 -292 93 -538
96 -548 5 -15 14 -11 62 26 134 102 214 131 362 131 144 -1 182 -17 483 -207
137 -86 255 -157 263 -157 10 0 367 223 391 244 2 1 -38 123 -87 271 -50 148
-90 282 -90 297 0 24 4 28 28 28 15 0 268 -84 562 -187 492 -171 541 -186 605
-187 96 -1 162 24 229 85 145 132 142 325 -4 399 -19 9 -795 291 -1725 625
-929 335 -1702 617 -1717 627 -51 35 -48 56 58 440 74 267 98 368 97 413 0
161 -151 277 -330 254z"/>
<path d="M2195 3781 c-109 -32 -175 -71 -261 -156 -126 -125 -179 -253 -177
-430 1 -225 127 -427 325 -525 186 -91 360 -91 545 0 268 132 394 455 291 741
-65 178 -228 325 -415 373 -81 21 -230 20 -308 -3z"/>
<path d="M4970 803 c-14 -2 -151 -97 -305 -210 -250 -185 -284 -207 -325 -211
-44 -4 -51 0 -305 167 -295 195 -320 206 -455 199 -108 -5 -114 -8 -405 -197
-272 -177 -266 -174 -329 -169 -45 4 -79 22 -301 163 -320 203 -314 200 -440
200 -80 -1 -109 -5 -146 -22 -25 -11 -135 -88 -246 -171 -227 -170 -230 -172
-273 -172 -40 0 -33 -4 -312 177 -131 85 -255 161 -275 170 -26 12 -67 17
-128 17 -128 1 -158 -16 -416 -229 -267 -222 -297 -250 -305 -291 -8 -45 12
-100 47 -124 33 -24 94 -29 129 -10 13 7 130 102 262 211 219 183 241 199 277
199 33 0 75 -24 287 -161 137 -89 268 -170 291 -181 87 -39 222 -33 313 12 19
10 114 78 210 151 233 177 236 179 282 179 49 0 52 -2 320 -172 301 -190 307
-193 438 -193 85 0 113 4 150 21 25 11 154 92 288 179 134 86 257 160 275 164
18 4 46 4 64 0 18 -3 144 -80 280 -169 281 -186 324 -205 439 -197 40 3 93 15
120 26 67 29 593 419 622 461 27 41 28 85 2 127 -16 28 -79 66 -99 62 -3 -1
-17 -4 -31 -6z"/>
</g>
</svg>
