<?xml version="1.0" encoding="UTF-8"?>
<svg xmlns="http://www.w3.org/2000/svg" xmlns:xlink="http://www.w3.org/1999/xlink" width="256" height="256" viewBox="0 0 3001 3001">

<path fill-rule="evenodd" fill="rgb(0%, 0%, 0%)" fill-opacity="1" d="M 1561.851562 1011.511719 C 1580.179688 1043.25 1609.648438 1064.578125 1642.460938 1073.371094 C 1674.910156 1082.050781 1710.621094 1078.558594 1742.039062 1060.851562 L 1743.171875 1060.148438 C 1754.699219 1053.46875 1769.46875 1057.410156 1776.148438 1068.941406 L 1791.308594 1095.199219 L 1833.511719 1083.890625 L 1708.140625 866.738281 L 897.710938 1334.628906 L 1002.910156 1306.441406 L 1527.660156 1003.480469 L 1528.871094 1002.730469 C 1540.398438 996.050781 1555.171875 999.980469 1561.851562 1011.511719 Z M 1182.660156 1258.28125 L 1675.570312 1126.210938 C 1660.128906 1126.101562 1644.808594 1124.011719 1629.988281 1120.039062 C 1592.550781 1110.011719 1558.308594 1088.011719 1533.488281 1055.738281 Z M 1205.628906 1381.25 L 2048.019531 1381.25 L 2031.789062 1320.628906 C 1991.5 1325.859375 1951.789062 1317.179688 1918.238281 1297.808594 L 1918.171875 1297.769531 L 1918.148438 1297.808594 C 1884.601562 1278.449219 1857.25 1248.371094 1841.621094 1210.828125 Z M 1346.648438 1935.761719 C 1307.148438 1896.261719 1282.71875 1841.699219 1282.71875 1781.449219 C 1282.71875 1721.191406 1307.148438 1666.640625 1346.640625 1627.140625 C 1386.128906 1587.660156 1440.699219 1563.21875 1500.949219 1563.21875 C 1561.199219 1563.21875 1615.769531 1587.660156 1655.261719 1627.140625 C 1694.75 1666.640625 1719.179688 1721.191406 1719.179688 1781.449219 L 1719.089844 1781.449219 C 1719.078125 1841.761719 1694.691406 1896.328125 1655.25 1935.761719 C 1615.769531 1975.238281 1561.199219 1999.679688 1500.949219 1999.679688 C 1440.699219 1999.679688 1386.128906 1975.238281 1346.648438 1935.761719 Z M 2005.160156 1506.039062 L 996.742188 1506.039062 C 991.359375 1546.359375 972.703125 1582.488281 945.3125 1609.878906 C 917.917969 1637.269531 881.785156 1655.929688 841.464844 1661.320312 L 841.464844 1901.578125 C 881.785156 1906.96875 917.917969 1925.621094 945.3125 1953.019531 L 945.265625 1953.070312 L 945.3125 1953.109375 C 972.6875 1980.5 991.339844 2016.59375 996.738281 2056.863281 L 2005.160156 2056.863281 C 2010.539062 2016.539062 2029.199219 1980.410156 2056.589844 1953.019531 C 2083.980469 1925.621094 2120.121094 1906.96875 2160.441406 1901.578125 L 2160.441406 1661.308594 C 2120.820312 1656 2085.25 1637.859375 2058.03125 1611.199219 C 2057.53125 1610.789062 2057.058594 1610.351562 2056.589844 1609.878906 C 2029.199219 1582.488281 2010.539062 1546.359375 2005.160156 1506.039062 Z M 1165.128906 1850.808594 C 1147.378906 1868.558594 1122.851562 1879.539062 1095.78125 1879.539062 L 1095.78125 1879.441406 C 1068.710938 1879.441406 1044.21875 1868.480469 1026.53125 1850.808594 L 1026.480469 1850.761719 L 1026.429688 1850.808594 C 1008.679688 1833.058594 997.695312 1808.53125 997.695312 1781.449219 C 997.695312 1754.371094 1008.679688 1729.851562 1026.429688 1712.101562 C 1026.921875 1711.601562 1027.449219 1711.128906 1027.96875 1710.691406 C 1045.621094 1693.761719 1069.53125 1683.359375 1095.78125 1683.359375 C 1122.859375 1683.359375 1147.378906 1694.351562 1165.128906 1712.101562 C 1182.878906 1729.851562 1193.871094 1754.371094 1193.871094 1781.449219 C 1193.871094 1808.53125 1182.878906 1833.058594 1165.128906 1850.808594 Z M 1808.039062 1781.449219 C 1808.039062 1754.371094 1819.019531 1729.851562 1836.769531 1712.101562 C 1854.519531 1694.351562 1879.039062 1683.359375 1906.121094 1683.359375 C 1933.199219 1683.359375 1957.730469 1694.351562 1975.46875 1712.101562 C 1993.21875 1729.851562 2004.210938 1754.371094 2004.210938 1781.449219 C 2004.210938 1808.53125 1993.21875 1833.058594 1975.46875 1850.808594 C 1957.730469 1868.558594 1933.191406 1879.539062 1906.121094 1879.539062 C 1879.039062 1879.539062 1854.519531 1868.558594 1836.769531 1850.808594 C 1819.019531 1833.058594 1808.039062 1808.53125 1808.039062 1781.449219 Z M 2079.519531 1429.628906 L 751 1429.628906 L 751 2133.265625 L 2251 2133.265625 L 2250.988281 1429.628906 Z M 911.101562 1575.671875 C 935.105469 1551.671875 949.960938 1518.488281 949.960938 1481.839844 C 949.960938 1468.488281 960.796875 1457.648438 974.152344 1457.648438 L 2027.75 1457.648438 C 2041.109375 1457.648438 2051.941406 1468.488281 2051.941406 1481.839844 C 2051.941406 1518.480469 2066.800781 1551.671875 2090.800781 1575.671875 C 2091.191406 1576.070312 2091.570312 1576.46875 2091.921875 1576.871094 C 2115.820312 1600.160156 2148.550781 1614.53125 2184.628906 1614.53125 C 2197.988281 1614.53125 2208.820312 1625.371094 2208.820312 1638.71875 L 2208.820312 1924.179688 C 2208.820312 1937.539062 2197.988281 1948.371094 2184.628906 1948.371094 C 2147.980469 1948.371094 2114.800781 1963.21875 2090.800781 1987.21875 C 2066.800781 2011.226562 2051.941406 2044.410156 2051.941406 2081.058594 C 2051.941406 2094.410156 2041.109375 2105.246094 2027.75 2105.246094 L 974.152344 2105.246094 C 960.796875 2105.246094 949.960938 2094.410156 949.960938 2081.058594 C 949.960938 2044.378906 935.117188 2011.167969 911.15625 1987.171875 L 911.101562 1987.21875 C 887.101562 1963.21875 853.910156 1948.371094 817.269531 1948.371094 C 803.914062 1948.371094 793.078125 1937.539062 793.078125 1924.179688 L 793.078125 1638.71875 C 793.078125 1625.371094 803.914062 1614.53125 817.269531 1614.53125 C 853.917969 1614.53125 887.101562 1599.679688 911.101562 1575.671875 Z M 2059.199219 1073.429688 L 910.414062 1381.25 L 1018.980469 1381.25 L 1850.898438 1158.328125 C 1863.789062 1154.878906 1877.03125 1162.550781 1880.46875 1175.429688 C 1889.960938 1210.828125 1912.910156 1239.058594 1942.339844 1256.050781 L 1942.320312 1256.089844 C 1971.699219 1273.019531 2007.601562 1278.761719 2043.050781 1269.261719 C 2055.929688 1265.820312 2069.171875 1273.480469 2072.621094 1286.359375 L 2098.039062 1381.25 L 2141.679688 1381.25 L 2059.199219 1073.429688 "/>
</svg>
