<svg width="20" height="20" viewBox="0 0 20 20" fill="none" xmlns="http://www.w3.org/2000/svg">
<path d="M18.9078 0H1.10781C0.816074 0 0.536285 0.115893 0.329995 0.322183C0.123705 0.528473 0.0078125 0.808262 0.0078125 1.1V18.9C0.0078125 19.0445 0.0362649 19.1875 0.0915451 19.321C0.146825 19.4544 0.227851 19.5757 0.329995 19.6778C0.43214 19.78 0.553403 19.861 0.686861 19.9163C0.820319 19.9715 0.963358 20 1.10781 20H10.6878V12.25H8.08781V9.25H10.6878V7C10.634 6.47176 10.6963 5.93813 10.8705 5.43654C11.0447 4.93495 11.3266 4.47755 11.6963 4.09641C12.066 3.71528 12.5146 3.41964 13.0106 3.23024C13.5067 3.04083 14.0382 2.96225 14.5678 3C15.3461 2.99521 16.1241 3.03528 16.8978 3.12V5.82H15.3078C14.0478 5.82 13.8078 6.42 13.8078 7.29V9.22H16.8078L16.4178 12.22H13.8078V20H18.9078C19.0523 20 19.1953 19.9715 19.3288 19.9163C19.4622 19.861 19.5835 19.78 19.6856 19.6778C19.7878 19.5757 19.8688 19.4544 19.9241 19.321C19.9794 19.1875 20.0078 19.0445 20.0078 18.9V1.1C20.0078 0.955546 19.9794 0.812506 19.9241 0.679048C19.8688 0.54559 19.7878 0.424327 19.6856 0.322183C19.5835 0.220038 19.4622 0.139013 19.3288 0.0837326C19.1953 0.0284524 19.0523 0 18.9078 0Z" fill="#82889E"/>
</svg>
