<svg width="24" height="24" viewBox="0 0 24 24" fill="none" xmlns="http://www.w3.org/2000/svg">
<path d="M20.4 0H3.6C2.64522 0 1.72955 0.379285 1.05442 1.05442C0.379285 1.72955 2.17054e-07 2.64522 2.17054e-07 3.6V5.004C-0.000171849 5.49953 0.10196 5.98976 0.3 6.444V6.516C0.469536 6.90116 0.709671 7.25119 1.008 7.548L8.4 14.892V22.8C8.39959 23.0039 8.45116 23.2046 8.54985 23.3831C8.64853 23.5615 8.79107 23.7119 8.964 23.82C9.15497 23.9383 9.37533 24.0007 9.6 24C9.78785 23.9989 9.97281 23.9537 10.14 23.868L14.94 21.468C15.1379 21.3683 15.3043 21.2157 15.4208 21.0272C15.5373 20.8387 15.5993 20.6216 15.6 20.4V14.892L22.944 7.548C23.2423 7.25119 23.4825 6.90116 23.652 6.516V6.444C23.8666 5.99332 23.9851 5.50293 24 5.004V3.6C24 2.64522 23.6207 1.72955 22.9456 1.05442C22.2705 0.379285 21.3548 0 20.4 0ZM13.548 13.548C13.4368 13.6601 13.3488 13.7931 13.2891 13.9393C13.2294 14.0855 13.1991 14.2421 13.2 14.4V19.656L10.8 20.856V14.4C10.8009 14.2421 10.7706 14.0855 10.7109 13.9393C10.6512 13.7931 10.5632 13.6601 10.452 13.548L4.092 7.2H19.908L13.548 13.548ZM21.6 4.8H2.4V3.6C2.4 3.28174 2.52643 2.97652 2.75147 2.75147C2.97652 2.52643 3.28174 2.4 3.6 2.4H20.4C20.7183 2.4 21.0235 2.52643 21.2485 2.75147C21.4736 2.97652 21.6 3.28174 21.6 3.6V4.8Z" fill="#444444"/>
</svg>
