<svg width="100" height="96" viewBox="0 0 100 96" fill="none" xmlns="http://www.w3.org/2000/svg">
<g clip-path="url(#clip0_71_211)">
<path d="M76.5625 0H23.4375C10.4933 0 0 10.0736 0 22.5V73.5C0 85.9264 10.4933 96 23.4375 96H76.5625C89.5067 96 100 85.9264 100 73.5V22.5C100 10.0736 89.5067 0 76.5625 0Z" fill="url(#paint0_radial_71_211)"/>
<path d="M76.5625 0H23.4375C10.4933 0 0 10.0736 0 22.5V73.5C0 85.9264 10.4933 96 23.4375 96H76.5625C89.5067 96 100 85.9264 100 73.5V22.5C100 10.0736 89.5067 0 76.5625 0Z" fill="url(#paint1_radial_71_211)"/>
<path d="M50.0035 10.5C39.3949 10.5 38.0633 10.5446 33.8969 10.7265C29.7383 10.9095 26.8996 11.5414 24.416 12.4688C21.8465 13.4265 19.6672 14.7079 17.4961 16.7929C15.323 18.8775 13.9883 20.9696 12.9875 23.4352C12.0188 25.8202 11.3598 28.5465 11.1727 32.5369C10.9863 36.537 10.9375 37.8158 10.9375 48.0004C10.9375 58.185 10.9844 59.4593 11.1734 63.459C11.3648 67.4512 12.023 70.1764 12.9883 72.5606C13.9867 75.0274 15.3215 77.1195 17.4934 79.2038C19.6641 81.2899 21.8434 82.5742 24.4109 83.532C26.8965 84.4594 29.7355 85.0912 33.8934 85.2742C38.0602 85.4561 39.3906 85.5007 49.9988 85.5007C60.6086 85.5007 61.9359 85.4561 66.1023 85.2742C70.2609 85.0912 73.1027 84.4594 75.5883 83.532C78.1566 82.5742 80.3328 81.2899 82.5031 79.2038C84.6762 77.1195 86.0105 75.0274 87.0117 72.5618C87.9719 70.1764 88.6312 67.4505 88.8266 63.4597C89.0137 59.46 89.0625 58.185 89.0625 48.0004C89.0625 37.8158 89.0137 36.5378 88.8266 32.5376C88.6312 28.5454 87.9719 25.8206 87.0117 23.4364C86.0105 20.9696 84.6762 18.8775 82.5031 16.7929C80.3305 14.7071 78.1574 13.4257 75.5859 12.4691C73.0957 11.5414 70.2555 10.9091 66.0969 10.7265C61.9301 10.5446 60.6035 10.5 49.9914 10.5H50.0035ZM46.4992 17.2579C47.5395 17.2564 48.7 17.2579 50.0035 17.2579C60.4336 17.2579 61.6695 17.2939 65.7883 17.4735C69.5969 17.6408 71.6641 18.2516 73.041 18.765C74.8641 19.4445 76.1637 20.2571 77.5301 21.57C78.8973 22.8825 79.7434 24.1324 80.4531 25.8825C80.9879 27.2025 81.625 29.187 81.7984 32.8433C81.9855 36.7965 82.0262 37.9837 82.0262 47.9917C82.0262 57.9997 81.9855 59.1874 81.7984 63.1402C81.6242 66.7965 80.9879 68.781 80.4531 70.1014C79.7453 71.8515 78.8973 73.0976 77.5301 74.4094C76.1629 75.7219 74.8648 76.5341 73.041 77.214C71.6656 77.7296 69.5969 78.339 65.7883 78.5063C61.6703 78.6859 60.4336 78.7249 50.0035 78.7249C39.573 78.7249 38.3367 78.6859 34.2191 78.5063C30.4105 78.3375 28.3434 77.7266 26.9652 77.2132C25.1426 76.5334 23.8402 75.7211 22.473 74.4086C21.1059 73.0961 20.2598 71.8493 19.55 70.0984C19.0152 68.778 18.3781 66.7935 18.2047 63.1372C18.0176 59.184 17.9801 57.9967 17.9801 47.9824C17.9801 37.968 18.0176 36.7871 18.2047 32.8339C18.3789 29.1776 19.0152 27.1931 19.55 25.8712C20.2582 24.1211 21.1059 22.8713 22.4734 21.5588C23.841 20.2463 25.1426 19.4336 26.9656 18.7526C28.3426 18.237 30.4105 17.6276 34.2191 17.4596C37.8227 17.3032 39.2191 17.2564 46.4992 17.2485V17.2579ZM70.8551 23.4844C68.2672 23.4844 66.1676 25.4981 66.1676 27.9829C66.1676 30.4673 68.2672 32.4829 70.8551 32.4829C73.443 32.4829 75.5426 30.4673 75.5426 27.9829C75.5426 25.4985 73.443 23.4829 70.8551 23.4829V23.4844ZM50.0035 28.7423C38.9254 28.7423 29.9434 37.365 29.9434 48.0004C29.9434 58.6358 38.9254 67.2544 50.0035 67.2544C61.082 67.2544 70.0609 58.6358 70.0609 48.0004C70.0609 37.3654 61.0813 28.7423 50.0027 28.7423H50.0035ZM50.0035 35.5001C57.1945 35.5001 63.0246 41.0963 63.0246 48.0004C63.0246 54.9038 57.1945 60.5006 50.0035 60.5006C42.8125 60.5006 36.9828 54.9038 36.9828 48.0004C36.9828 41.0963 42.8121 35.5001 50.0035 35.5001Z" fill="white"/>
</g>
<defs>
<radialGradient id="paint0_radial_71_211" cx="0" cy="0" r="1" gradientUnits="userSpaceOnUse" gradientTransform="translate(26.5625 103.394) rotate(-90) scale(95.1431 92.1777)">
<stop stop-color="#FFDD55"/>
<stop offset="0.1" stop-color="#FFDD55"/>
<stop offset="0.5" stop-color="#FF543E"/>
<stop offset="1" stop-color="#C837AB"/>
</radialGradient>
<radialGradient id="paint1_radial_71_211" cx="0" cy="0" r="1" gradientUnits="userSpaceOnUse" gradientTransform="translate(-16.7504 6.91537) rotate(78.2223) scale(42.5991 182.314)">
<stop stop-color="#3771C8"/>
<stop offset="0.128" stop-color="#3771C8"/>
<stop offset="1" stop-color="#6600FF" stop-opacity="0"/>
</radialGradient>
<clipPath id="clip0_71_211">
<rect width="100" height="96" fill="white"/>
</clipPath>
</defs>
</svg>
