<svg width="20" height="20" viewBox="0 0 20 20" fill="none" xmlns="http://www.w3.org/2000/svg">
<path d="M15.3478 3.46C15.1105 3.46 14.8785 3.53038 14.6811 3.66224C14.4838 3.79409 14.33 3.98151 14.2392 4.20078C14.1483 4.42005 14.1246 4.66133 14.1709 4.89411C14.2172 5.12689 14.3315 5.34071 14.4993 5.50853C14.6671 5.67635 14.8809 5.79064 15.1137 5.83694C15.3465 5.88324 15.5878 5.85948 15.807 5.76866C16.0263 5.67783 16.2137 5.52402 16.3456 5.32668C16.4774 5.12935 16.5478 4.89734 16.5478 4.66C16.5478 4.34174 16.4214 4.03652 16.1963 3.81147C15.9713 3.58643 15.6661 3.46 15.3478 3.46ZM19.9478 5.88C19.9284 5.0503 19.773 4.2294 19.4878 3.45C19.2335 2.78313 18.8378 2.17928 18.3278 1.68C17.8326 1.16743 17.2274 0.774176 16.5578 0.53C15.7805 0.236161 14.9587 0.07721 14.1278 0.0599999C13.0678 -5.58794e-08 12.7278 0 10.0078 0C7.28781 0 6.94781 -5.58794e-08 5.88781 0.0599999C5.05696 0.07721 4.23516 0.236161 3.45781 0.53C2.78949 0.776649 2.18475 1.16956 1.68781 1.68C1.17524 2.17518 0.781989 2.78044 0.537812 3.45C0.243973 4.22734 0.0850225 5.04915 0.0678124 5.88C0.00781244 6.94 0.0078125 7.28 0.0078125 10C0.0078125 12.72 0.00781244 13.06 0.0678124 14.12C0.0850225 14.9508 0.243973 15.7727 0.537812 16.55C0.781989 17.2196 1.17524 17.8248 1.68781 18.32C2.18475 18.8304 2.78949 19.2234 3.45781 19.47C4.23516 19.7638 5.05696 19.9228 5.88781 19.94C6.94781 20 7.28781 20 10.0078 20C12.7278 20 13.0678 20 14.1278 19.94C14.9587 19.9228 15.7805 19.7638 16.5578 19.47C17.2274 19.2258 17.8326 18.8326 18.3278 18.32C18.8401 17.8226 19.2361 17.2182 19.4878 16.55C19.773 15.7706 19.9284 14.9497 19.9478 14.12C19.9478 13.06 20.0078 12.72 20.0078 10C20.0078 7.28 20.0078 6.94 19.9478 5.88ZM18.1478 14C18.1405 14.6348 18.0256 15.2637 17.8078 15.86C17.6481 16.2952 17.3917 16.6884 17.0578 17.01C16.7335 17.3405 16.341 17.5964 15.9078 17.76C15.3115 17.9778 14.6826 18.0927 14.0478 18.1C13.0478 18.15 12.6778 18.16 10.0478 18.16C7.41781 18.16 7.04781 18.16 6.04781 18.1C5.3887 18.1123 4.73241 18.0109 4.10781 17.8C3.69359 17.6281 3.31917 17.3728 3.00781 17.05C2.6759 16.7287 2.42266 16.3352 2.26781 15.9C2.02367 15.2952 1.88826 14.6519 1.86781 14C1.86781 13 1.80781 12.63 1.80781 10C1.80781 7.37 1.80781 7 1.86781 6C1.87229 5.35106 1.99076 4.70795 2.21781 4.1C2.39386 3.67791 2.66408 3.30166 3.00781 3C3.31163 2.65617 3.6871 2.3831 4.10781 2.2C4.71736 1.98004 5.35981 1.86508 6.00781 1.86C7.00781 1.86 7.37781 1.8 10.0078 1.8C12.6378 1.8 13.0078 1.8 14.0078 1.86C14.6426 1.86728 15.2715 1.98225 15.8678 2.2C16.3222 2.36865 16.7301 2.64285 17.0578 3C17.3855 3.30718 17.6416 3.68273 17.8078 4.1C18.0301 4.70893 18.1451 5.35178 18.1478 6C18.1978 7 18.2078 7.37 18.2078 10C18.2078 12.63 18.1978 13 18.1478 14ZM10.0078 4.87C8.99362 4.87198 8.00277 5.17453 7.16047 5.73942C6.31816 6.30431 5.66219 7.1062 5.27545 8.04375C4.8887 8.98131 4.78854 10.0125 4.98761 11.0069C5.18668 12.0014 5.67605 12.9145 6.39389 13.631C7.11173 14.3474 8.02582 14.835 9.02067 15.0321C10.0155 15.2293 11.0465 15.1271 11.9833 14.7385C12.9201 14.35 13.7207 13.6924 14.2839 12.849C14.8472 12.0056 15.1478 11.0142 15.1478 10C15.1491 9.3251 15.017 8.65661 14.7591 8.03296C14.5011 7.40931 14.1224 6.84281 13.6447 6.36605C13.167 5.88929 12.5998 5.51168 11.9756 5.25493C11.3515 4.99818 10.6827 4.86736 10.0078 4.87ZM10.0078 13.33C9.3492 13.33 8.70538 13.1347 8.15776 12.7688C7.61015 12.4029 7.18333 11.8828 6.93129 11.2743C6.67925 10.6659 6.61331 9.99631 6.7418 9.35035C6.87029 8.70439 7.18744 8.11104 7.65315 7.64533C8.11886 7.17963 8.7122 6.86247 9.35816 6.73398C10.0041 6.6055 10.6737 6.67144 11.2821 6.92348C11.8906 7.17552 12.4107 7.60234 12.7766 8.14995C13.1425 8.69757 13.3378 9.34139 13.3378 10C13.3378 10.4373 13.2517 10.8703 13.0843 11.2743C12.917 11.6784 12.6717 12.0454 12.3625 12.3547C12.0533 12.6639 11.6862 12.9092 11.2821 13.0765C10.8781 13.2439 10.4451 13.33 10.0078 13.33Z" fill="#82889E"/>
</svg>
