<svg width="20" height="20" viewBox="0 0 20 20" fill="none" xmlns="http://www.w3.org/2000/svg">
<path d="M18.4627 -0.00010431H1.52273C1.33231 -0.00274893 1.14324 0.0321432 0.9663 0.102579C0.789365 0.173016 0.628038 0.277616 0.491532 0.410408C0.355026 0.543199 0.246016 0.70158 0.170726 0.876505C0.0954368 1.05143 0.0553428 1.23947 0.0527344 1.4299V18.5699C0.0553428 18.7603 0.0954368 18.9484 0.170726 19.1233C0.246016 19.2982 0.355026 19.4566 0.491532 19.5894C0.628038 19.7222 0.789365 19.8268 0.9663 19.8972C1.14324 19.9676 1.33231 20.0025 1.52273 19.9999H18.4627C18.6532 20.0025 18.8422 19.9676 19.0192 19.8972C19.1961 19.8268 19.3574 19.7222 19.4939 19.5894C19.6304 19.4566 19.7395 19.2982 19.8147 19.1233C19.89 18.9484 19.9301 18.7603 19.9327 18.5699V1.4299C19.9301 1.23947 19.89 1.05143 19.8147 0.876505C19.7395 0.70158 19.6304 0.543199 19.4939 0.410408C19.3574 0.277616 19.1961 0.173016 19.0192 0.102579C18.8422 0.0321432 18.6532 -0.00274893 18.4627 -0.00010431ZM6.08273 16.7399H3.08273V7.7399H6.08273V16.7399ZM4.58273 6.4799C4.169 6.4799 3.7722 6.31554 3.47965 6.02298C3.18709 5.73043 3.02273 5.33363 3.02273 4.9199C3.02273 4.50616 3.18709 4.10937 3.47965 3.81681C3.7722 3.52425 4.169 3.3599 4.58273 3.3599C4.80243 3.33498 5.02491 3.35675 5.23561 3.42378C5.44631 3.49081 5.64047 3.60159 5.80539 3.74886C5.97031 3.89613 6.10226 4.07657 6.19261 4.27838C6.28295 4.48018 6.32965 4.69879 6.32965 4.9199C6.32965 5.141 6.28295 5.35961 6.19261 5.56141C6.10226 5.76322 5.97031 5.94366 5.80539 6.09093C5.64047 6.23821 5.44631 6.34898 5.23561 6.41601C5.02491 6.48304 4.80243 6.50481 4.58273 6.4799ZM16.9027 16.7399H13.9027V11.9099C13.9027 10.6999 13.4727 9.9099 12.3827 9.9099C12.0454 9.91237 11.7169 10.0182 11.4416 10.2131C11.1662 10.408 10.9572 10.6826 10.8427 10.9999C10.7645 11.2349 10.7306 11.4825 10.7427 11.7299V16.7299H7.74273C7.74273 16.7299 7.74273 8.5499 7.74273 7.7299H10.7427V8.9999C11.0153 8.527 11.4116 8.13741 11.8892 7.8731C12.3667 7.60878 12.9073 7.47975 13.4527 7.4999C15.4527 7.4999 16.9027 8.7899 16.9027 11.5599V16.7399Z" fill="#82889E"/>
</svg>
