<svg width="23" height="17" viewBox="0 0 23 17" fill="none" xmlns="http://www.w3.org/2000/svg">
<path d="M22.9998 9.74984C22.9998 9.94876 22.9207 10.1395 22.7801 10.2802C22.6394 10.4208 22.4487 10.4998 22.2498 10.4998H17.7498C17.5508 10.4998 17.3601 10.4208 17.2194 10.2802C17.0788 10.1395 16.9998 9.94876 16.9998 9.74984C16.9998 9.55093 17.0788 9.36016 17.2194 9.21951C17.3601 9.07886 17.5508 8.99984 17.7498 8.99984H22.2498C22.4487 8.99984 22.6394 9.07886 22.7801 9.21951C22.9207 9.36016 22.9998 9.55093 22.9998 9.74984ZM17.5744 15.267C17.7025 15.4194 17.7648 15.6165 17.7475 15.8148C17.7303 16.0131 17.635 16.1965 17.4826 16.3245C17.3302 16.4526 17.1331 16.5148 16.9348 16.4976C16.7365 16.4804 16.5531 16.3851 16.4251 16.2327C14.5388 13.9864 11.9457 12.7498 9.12476 12.7498C6.30382 12.7498 3.71069 13.9864 1.82444 16.2327C1.69639 16.3849 1.51309 16.4801 1.31486 16.4973C1.11663 16.5144 0.919705 16.4521 0.767413 16.3241C0.61512 16.196 0.519933 16.0127 0.502791 15.8145C0.485649 15.6162 0.547957 15.4193 0.676006 15.267C2.07663 13.6002 3.81851 12.4161 5.75444 11.7823C4.57873 11.0501 3.67349 9.95479 3.17569 8.66223C2.67789 7.36966 2.61461 5.95013 2.99543 4.61839C3.37624 3.28666 4.18043 2.11518 5.28632 1.2812C6.39222 0.447211 7.73964 -0.00390625 9.12476 -0.00390625C10.5099 -0.00390625 11.8573 0.447211 12.9632 1.2812C14.0691 2.11518 14.8733 3.28666 15.2541 4.61839C15.6349 5.95013 15.5716 7.36966 15.0738 8.66223C14.576 9.95479 13.6708 11.0501 12.4951 11.7823C14.431 12.4161 16.1729 13.6002 17.5744 15.267ZM9.12476 11.2498C10.0889 11.2498 11.0315 10.9639 11.8332 10.4283C12.6349 9.89259 13.2597 9.13121 13.6287 8.24043C13.9976 7.34963 14.0942 6.36943 13.9061 5.42378C13.718 4.47812 13.2537 3.60948 12.5719 2.9277C11.8901 2.24592 11.0215 1.78162 10.0758 1.59351C9.13016 1.40541 8.14996 1.50195 7.25917 1.87093C6.36838 2.23991 5.60701 2.86475 5.07134 3.66644C4.53567 4.46813 4.24976 5.41066 4.24976 6.37484C4.25124 7.66732 4.76534 8.90643 5.67925 9.82034C6.59317 10.7343 7.83228 11.2484 9.12476 11.2498Z" fill="black"/>
</svg>
