<svg width="20" height="20" viewBox="0 0 20 20" fill="none" xmlns="http://www.w3.org/2000/svg">
<path d="M10 8C10.2472 8 10.4889 7.92669 10.6945 7.78934C10.9 7.65198 11.0602 7.45676 11.1548 7.22835C11.2495 6.99995 11.2742 6.74861 11.226 6.50614C11.1777 6.26366 11.0587 6.04093 10.8839 5.86611C10.7091 5.6913 10.4863 5.57225 10.2439 5.52402C10.0014 5.47579 9.75005 5.50054 9.52164 5.59515C9.29323 5.68976 9.09801 5.84997 8.96066 6.05554C8.82331 6.2611 8.75 6.50277 8.75 6.75C8.75 7.08152 8.88169 7.39946 9.11611 7.63388C9.35053 7.8683 9.66848 8 10 8ZM10 9.5C9.73478 9.5 9.48043 9.60536 9.29289 9.79289C9.10535 9.98043 9 10.2348 9 10.5L9 13.5C9 13.7652 9.10535 14.0196 9.29289 14.2071C9.48043 14.3946 9.73478 14.5 10 14.5C10.2652 14.5 10.5196 14.3946 10.7071 14.2071C10.8946 14.0196 11 13.7652 11 13.5L11 10.5C11 10.2348 10.8946 9.98043 10.7071 9.79289C10.5196 9.60536 10.2652 9.5 10 9.5ZM10 20C11.9778 20 13.9112 19.4135 15.5557 18.3147C17.2002 17.2159 18.4819 15.6541 19.2388 13.8268C19.9957 11.9996 20.1937 9.98891 19.8078 8.0491C19.422 6.10929 18.4696 4.32746 17.0711 2.92893C15.6725 1.53041 13.8907 0.577999 11.9509 0.192146C10.0111 -0.193707 8.00042 0.00432673 6.17316 0.761203C4.3459 1.51808 2.78412 2.79981 1.6853 4.4443C0.586488 6.08879 -2.76756e-06 8.02219 -2.94047e-06 10C0.00294559 12.6513 1.05746 15.1931 2.93218 17.0678C4.80691 18.9425 7.34874 19.9971 10 20ZM10 2C11.5822 2 13.129 2.46919 14.4446 3.34824C15.7602 4.22729 16.7855 5.47672 17.391 6.93853C17.9965 8.40034 18.155 10.0089 17.8463 11.5607C17.5376 13.1126 16.7757 14.538 15.6569 15.6569C14.538 16.7757 13.1126 17.5376 11.5607 17.8463C10.0089 18.155 8.40034 17.9965 6.93853 17.391C5.47672 16.7855 4.22729 15.7602 3.34824 14.4446C2.46919 13.129 2 11.5822 2 10C2.00242 7.87901 2.84606 5.84559 4.34582 4.34583C5.84559 2.84606 7.87901 2.00243 10 2Z" fill="#D24949"/>
</svg>
