<svg width="20" height="20" viewBox="0 0 20 20" fill="none" xmlns="http://www.w3.org/2000/svg">
<path d="M6.71 5.71087L9 3.41087V13.0009C9 13.2661 9.10536 13.5204 9.29289 13.708C9.48043 13.8955 9.73478 14.0009 10 14.0009C10.2652 14.0009 10.5196 13.8955 10.7071 13.708C10.8946 13.5204 11 13.2661 11 13.0009V3.41087L13.29 5.71087C13.383 5.8046 13.4936 5.879 13.6154 5.92976C13.7373 5.98053 13.868 6.00667 14 6.00667C14.132 6.00667 14.2627 5.98053 14.3846 5.92976C14.5064 5.879 14.617 5.8046 14.71 5.71087C14.8037 5.61791 14.8781 5.50731 14.9289 5.38545C14.9797 5.26359 15.0058 5.13288 15.0058 5.00087C15.0058 4.86886 14.9797 4.73816 14.9289 4.6163C14.8781 4.49444 14.8037 4.38384 14.71 4.29087L10.71 0.290873C10.6149 0.199832 10.5028 0.128467 10.38 0.0808729C10.1365 -0.0191451 9.86346 -0.0191451 9.62 0.0808729C9.49725 0.128467 9.3851 0.199832 9.29 0.290873L5.29 4.29087C5.19676 4.38411 5.1228 4.4948 5.07234 4.61662C5.02188 4.73845 4.99591 4.86901 4.99591 5.00087C4.99591 5.13273 5.02188 5.2633 5.07234 5.38512C5.1228 5.50694 5.19676 5.61763 5.29 5.71087C5.38324 5.80411 5.49393 5.87807 5.61575 5.92853C5.73757 5.97899 5.86814 6.00496 6 6.00496C6.13186 6.00496 6.26243 5.97899 6.38425 5.92853C6.50607 5.87807 6.61676 5.80411 6.71 5.71087ZM19 12.0009C18.7348 12.0009 18.4804 12.1062 18.2929 12.2938C18.1054 12.4813 18 12.7357 18 13.0009V17.0009C18 17.2661 17.8946 17.5204 17.7071 17.708C17.5196 17.8955 17.2652 18.0009 17 18.0009H3C2.73478 18.0009 2.48043 17.8955 2.29289 17.708C2.10536 17.5204 2 17.2661 2 17.0009V13.0009C2 12.7357 1.89464 12.4813 1.70711 12.2938C1.51957 12.1062 1.26522 12.0009 1 12.0009C0.734784 12.0009 0.48043 12.1062 0.292893 12.2938C0.105357 12.4813 0 12.7357 0 13.0009V17.0009C0 17.7965 0.316071 18.5596 0.87868 19.1222C1.44129 19.6848 2.20435 20.0009 3 20.0009H17C17.7956 20.0009 18.5587 19.6848 19.1213 19.1222C19.6839 18.5596 20 17.7965 20 17.0009V13.0009C20 12.7357 19.8946 12.4813 19.7071 12.2938C19.5196 12.1062 19.2652 12.0009 19 12.0009Z" fill="#444444"/>
</svg>
